<svg width="44" height="39" viewBox="0 0 44 39" fill="none" xmlns="http://www.w3.org/2000/svg">
<path d="M8.37944 0L7.39648 13.07C7.52809 14.6703 8.95534 16.0158 10.5312 16.0158C12.3351 16.0158 13.9175 14.6416 13.9175 13.0748C13.9175 13.0721 13.9175 13.0695 13.9175 13.0667C13.9175 13.0639 13.9175 13.0613 13.9175 13.0585L14.2999 0H8.37944Z" fill="white"/>
<path d="M18.1749 16.0158C19.9089 16.0158 21.3197 14.6976 21.3209 13.0769L21.0829 0H15.4121L15.0293 13.0791C15.0315 14.6985 16.4417 16.0158 18.1749 16.0158Z" fill="white"/>
<path d="M3.1455 16.0158C4.73252 16.0158 6.16968 14.6511 6.2836 13.0357V13.0332L7.26396 0H4.13152L0.0623321 12.6199C0.0393628 12.6994 0.0195425 12.7806 0.00314902 12.8614L0 12.877C0.0302862 14.5552 1.48708 16.0158 3.1455 16.0158Z" fill="white"/>
<path d="M29.8325 13.0186V13.0204C29.8335 13.0305 29.8335 13.0404 29.834 13.0504C29.834 13.0585 29.8353 13.0666 29.8353 13.0748C29.8353 14.6965 31.2465 16.0158 32.9812 16.0158C34.7031 16.0158 36.1057 14.7157 36.1261 13.1104L34.132 0H28.5508L29.8325 13.0175V13.0186Z" fill="white"/>
<path d="M22.1934 0L22.4314 13.0646V13.0697C22.4314 13.0697 22.4314 13.0732 22.4314 13.0748C22.4314 14.6965 23.8426 16.0158 25.5774 16.0158C27.3043 16.0158 28.7104 14.708 28.7228 13.0962L27.4328 0H22.1934Z" fill="white"/>
<path d="M27.0801 21.6807H36.084V38.2517H27.0801V21.6807Z" fill="white"/>
<path d="M37.2323 12.9913C37.233 12.9953 37.2331 12.9993 37.2334 13.0033C37.2348 13.0131 37.2358 13.0231 37.2366 13.0332C37.2374 13.0433 37.2378 13.0527 37.238 13.0624C37.238 13.0666 37.2386 13.0706 37.2386 13.0748C37.2386 14.6965 38.6499 16.0158 40.3847 16.0158C42.1769 16.0158 43.5284 14.8466 43.5284 13.2961L43.53 13.1372L40.4138 0H35.2559L37.2323 12.9913Z" fill="white"/>
<path d="M40.3853 38.2511L40.3941 17.1268C40.3904 17.1268 40.3868 17.1268 40.3832 17.1268C38.8748 17.1392 37.4702 16.3605 36.6814 15.0747C35.4042 17.1191 32.7116 17.741 30.6673 16.4638C30.1047 16.1123 29.6297 15.6373 29.2782 15.0747C28.0009 17.1191 25.3081 17.741 23.2636 16.4636C22.7012 16.1122 22.2261 15.6372 21.8747 15.0747C20.5981 17.1188 17.906 17.7408 15.8619 16.4642C15.2851 16.1039 14.8004 15.6137 14.4467 15.0329C13.6667 16.2705 12.1852 17.1268 10.529 17.1268C8.98624 17.1268 7.58372 16.2298 6.83657 14.9238C6.0946 16.2222 4.70347 17.1156 3.17185 17.126L3.14258 38.2511H25.9673V21.1244C25.9673 20.8175 26.2161 20.5687 26.523 20.5687H36.6383C36.9452 20.5687 37.194 20.8175 37.194 21.1244V38.2511H40.3853ZM24.2012 32.5163C24.2012 32.8232 23.9524 33.072 23.6455 33.072H5.8612C5.55427 33.072 5.30549 32.8232 5.30549 32.5163V21.4234C5.30549 21.1165 5.55427 20.8677 5.8612 20.8677H23.6455C23.9524 20.8677 24.2012 21.1165 24.2012 21.4234V32.5163Z" fill="white"/>
<path d="M6.41797 21.9795H23.0909V31.961H6.41797V21.9795Z" fill="white"/>
</svg>
