<svg width="368" height="361" viewBox="0 0 368 361" fill="none" xmlns="http://www.w3.org/2000/svg">
<ellipse cx="271.226" cy="243.072" rx="96.7728" ry="96.7195" fill="#E6F7FD"/>
<path d="M299.182 303.376C294.701 291.996 291.43 279.89 287.796 267.058C285.374 258.463 281.377 248.778 272.898 246.114C264.54 243.451 255.698 248.899 250.489 256.041C245.402 263.063 242.858 271.658 238.498 279.164C230.625 292.843 216.574 298.533 204.946 286.548C188.352 269.358 180.963 245.993 170.425 225.05C162.794 209.918 156.374 192.122 146.805 178.079C132.149 156.772 112.042 138.492 85.3941 138.492C68.4364 141.035 53.5379 156.046 43.4844 174.81C33.4309 193.575 27.4957 215.85 22.5295 238.003C13.445 278.437 6.66195 319.719 0 361L336.852 357.126C335.52 357.126 327.284 346.11 325.709 344.536C312.748 332.067 304.996 318.387 299.182 303.376Z" fill="#6FCF97"/>
<path d="M235.23 322.624C234.624 335.698 220.332 358.579 207.25 357.973C194.168 357.368 187.143 333.398 187.87 320.324C188.475 307.249 202.526 241.756 215.608 242.361C228.568 242.967 235.836 309.549 235.23 322.624Z" fill="#6AA5FE"/>
<path d="M214.875 250.836L208.213 356.884" stroke="#1A55B5" stroke-width="0.8675" stroke-miterlimit="10" stroke-linecap="round" stroke-linejoin="round"/>
<path d="M205.19 319.961C202.161 326.498 199.981 333.398 198.528 340.541C197.801 344.173 197.437 348.047 199.012 351.436C200.829 355.068 204.826 357.126 208.823 357.852C218.513 359.426 228.325 353.494 234.018 345.504C239.711 337.514 242.254 327.588 244.435 318.024C246.251 310.518 247.947 302.77 251.339 295.749C252.792 292.722 261.271 281.101 257.274 278.074C251.823 273.837 235.956 278.437 225.902 289.454C217.544 298.533 210.277 308.702 205.19 319.961Z" fill="#FFC957"/>
<path d="M208.82 357.731C208.82 357.731 220.57 311.97 248.913 285.822" stroke="#6AA5FE" stroke-width="0.8675" stroke-miterlimit="10" stroke-linecap="round" stroke-linejoin="round"/>
<path d="M273.985 309.186C273.016 311.002 271.078 312.213 269.382 313.181C267.323 314.392 265.022 315.36 262.842 316.45C260.056 317.782 257.149 319.113 254.484 320.808C252.546 322.019 250.85 323.35 249.396 324.924C251.698 319.718 254.363 315.239 257.512 311.123C261.63 305.797 265.87 303.133 270.109 303.133C270.23 303.133 270.351 303.133 270.351 303.133C271.684 303.133 272.653 303.496 273.379 304.102C274.954 305.191 274.954 307.613 273.985 309.186Z" fill="#1A55B5"/>
<path d="M278.83 338.725C277.134 339.936 274.954 340.178 273.016 340.42C270.593 340.541 268.171 340.541 265.748 340.541C262.72 340.541 259.45 340.541 256.422 340.904C254.12 341.146 251.94 341.63 250.002 342.357C254.241 338.604 258.602 335.698 263.205 333.398C269.261 330.372 274.227 329.767 278.103 331.582C278.224 331.582 278.224 331.704 278.346 331.704C279.557 332.309 280.284 333.035 280.647 333.883C281.374 335.577 280.284 337.635 278.83 338.725Z" fill="#1A55B5"/>
<path d="M267.567 353.252C266.113 353.01 264.902 352.162 263.933 351.315C262.601 350.226 261.389 349.136 260.299 347.925C258.725 346.473 257.15 345.02 255.454 343.688C254.243 342.72 252.911 341.993 251.578 341.509C255.454 341.63 258.967 342.236 262.358 343.204C266.84 344.536 269.505 346.594 270.595 349.257C270.595 349.378 270.595 349.378 270.716 349.499C271.079 350.347 271.079 351.073 270.837 351.678C270.353 352.889 268.778 353.373 267.567 353.252Z" fill="#1A55B5"/>
<path d="M235.711 357.973C235.711 357.973 235.832 330.009 269.99 306.281" stroke="#2A294F" stroke-width="0.7798" stroke-miterlimit="10" stroke-linecap="round" stroke-linejoin="round"/>
<path d="M235.711 357.973C235.711 357.973 246.249 335.456 274.714 335.456" stroke="#2A294F" stroke-width="0.7798" stroke-miterlimit="10" stroke-linecap="round" stroke-linejoin="round"/>
<path d="M251.215 341.751C251.215 341.751 256.666 341.388 268.173 349.984" stroke="#2A294F" stroke-width="0.7798" stroke-miterlimit="10" stroke-linecap="round" stroke-linejoin="round"/>
<path d="M263.016 358.216C255.143 328.314 247.149 298.533 237.822 269.6C232.613 253.257 226.799 237.035 218.805 223.96C210.811 210.886 200.152 201.322 189.492 201.322C173.019 204.47 162.481 220.692 155.456 238.73C150.853 250.473 148.673 264.758 145.402 277.227C140.921 294.417 138.619 313.06 130.019 328.072C124.084 338.604 114.879 335.941 108.701 326.498C105.31 321.292 102.887 315.118 99.0111 310.276C95.135 305.555 89.1998 302.407 84.2336 305.434C79.2675 308.46 77.6928 316.329 77.0872 323.108C76.2393 333.519 75.2703 343.083 73.6956 352.284C73.3323 354.342 72.9689 356.279 72.4844 358.216H263.016Z" fill="#DCE6EF"/>
<path d="M192.403 317.056C187.436 311.366 181.259 306.402 179.2 299.26C177.746 294.054 178.836 288.485 179.442 283.038C180.048 277.59 179.805 271.658 176.293 267.421C173.386 264.031 168.904 262.458 164.422 261.61C160.062 260.642 155.459 260.036 151.583 257.857C145.284 254.226 146.496 248.052 143.104 242.725C139.349 236.672 130.386 228.924 122.876 232.919C114.882 237.156 116.093 250.11 121.422 255.799C124.935 259.552 129.538 263.184 130.022 268.39C130.749 276.137 121.907 283.159 124.329 290.543C126.146 295.991 133.051 297.928 136.442 302.528C139.834 307.129 139.107 313.545 137.169 318.993C135.231 324.319 132.082 329.283 130.87 334.851C128.327 346.231 137.29 354.1 147.465 356.642C156.791 358.942 177.019 357.853 177.019 357.853C184.287 355.31 192.281 349.015 196.157 342.115C199.186 336.909 199.549 330.251 197.248 324.682C196.279 321.898 194.462 319.477 192.403 317.056Z" fill="#FFC957"/>
<path d="M131.959 245.267C131.959 245.267 166.48 298.533 170.235 357.731" stroke="#6AA5FE" stroke-miterlimit="10" stroke-linecap="round" stroke-linejoin="round"/>
<path d="M101.194 317.176C101.679 316.692 102.526 316.45 103.496 316.45C103.617 316.45 103.617 316.45 103.738 316.45C107.008 316.45 110.157 318.508 113.307 322.503C115.729 325.53 117.667 329.04 119.484 332.914C118.394 331.825 117.062 330.735 115.608 329.888C113.549 328.677 111.369 327.588 109.31 326.619C107.614 325.893 105.918 325.045 104.343 324.198C103.011 323.471 101.679 322.503 100.831 321.171C100.104 319.84 100.104 318.024 101.194 317.176Z" fill="#6AA5FE"/>
<path d="M95.8641 339.693C96.1063 339.088 96.7119 338.483 97.681 337.998C97.8021 337.998 97.8021 337.877 97.9232 337.877C100.83 336.546 104.585 337.03 109.188 339.33C112.701 341.025 115.971 343.325 119.241 346.109C117.788 345.625 116.092 345.141 114.396 345.02C112.095 344.778 109.672 344.778 107.25 344.778C105.433 344.778 103.616 344.778 101.678 344.657C100.225 344.536 98.5288 344.293 97.1965 343.446C96.1063 342.599 95.2584 341.025 95.8641 339.693Z" fill="#6AA5FE"/>
<path d="M103.253 353.252C103.132 352.768 103.132 352.284 103.375 351.557V351.436C104.222 349.378 106.282 347.805 109.673 346.836C112.217 346.11 114.882 345.625 117.789 345.504C116.82 345.868 115.851 346.473 114.882 347.199C113.549 348.168 112.338 349.257 111.248 350.347C110.4 351.194 109.431 352.042 108.462 352.889C107.735 353.494 106.766 354.221 105.676 354.342C104.707 354.584 103.617 354.1 103.253 353.252Z" fill="#6AA5FE"/>
<path d="M129.778 357.973C129.778 357.973 129.657 336.788 103.857 318.871" stroke="#2A294F" stroke-width="0.7798" stroke-miterlimit="10" stroke-linecap="round" stroke-linejoin="round"/>
<path d="M129.779 357.974C129.779 357.974 121.785 341.025 100.346 341.025" stroke="#2A294F" stroke-width="0.7798" stroke-miterlimit="10" stroke-linecap="round" stroke-linejoin="round"/>
<path d="M118.031 345.747C118.031 345.747 113.913 345.384 105.191 352.042" stroke="#2A294F" stroke-width="0.7798" stroke-miterlimit="10" stroke-linecap="round" stroke-linejoin="round"/>
<path d="M282.223 357.974H54.3839C48.0854 357.974 42.998 352.889 42.998 346.594V37.6497C42.998 31.3546 48.0854 26.2701 54.3839 26.2701H282.344C288.642 26.2701 293.73 31.3546 293.73 37.6497V346.473C293.73 352.889 288.642 357.974 282.223 357.974Z" fill="#6AA5FE"/>
<path d="M42.877 107.017V346.473C42.877 352.768 47.9643 357.853 54.2628 357.853H282.223C288.521 357.853 293.609 352.768 293.609 346.473V299.26L42.877 107.017Z" fill="#527EE9"/>
<path d="M274.471 342.72H62.136C59.5924 342.72 57.4121 340.662 57.4121 337.999V46.2449C57.4121 43.7027 59.4713 41.5236 62.136 41.5236H274.471C277.014 41.5236 279.195 43.5816 279.195 46.2449V337.999C279.195 340.662 277.014 342.72 274.471 342.72Z" fill="#F3F4F6"/>
<path d="M187.381 19.9748C187.381 19.6117 187.381 19.3695 187.381 19.0064C187.381 8.47418 178.902 0 168.364 0C157.826 0 149.347 8.47418 149.347 19.0064C149.347 19.3695 149.347 19.6117 149.347 19.9748H121.367V49.0292H215.361V19.9748H187.381Z" fill="#1A55B5"/>
<path d="M121.246 19.9746V49.0289H215.361L121.246 19.9746Z" fill="#2C6BC6"/>
<path d="M172.444 28.8109C177.878 26.5469 180.446 20.3092 178.181 14.8786C175.915 9.44803 169.674 6.88102 164.241 9.14504C158.807 11.4091 156.239 17.6468 158.504 23.0774C160.769 28.508 167.01 31.075 172.444 28.8109Z" fill="#527EE9"/>
<path d="M160.732 11.5004C156.493 15.7375 156.493 22.3958 160.732 26.6329C164.972 30.87 171.634 30.87 175.873 26.6329L160.732 11.5004Z" fill="#6AA5FE"/>
<path d="M215.361 49.0292H121.246V51.0872H215.361V49.0292Z" fill="#CDE1F9"/>
<path d="M118.426 89.221H82.6934V124.934H118.426V89.221Z" stroke="#1A55B5" stroke-miterlimit="10"/>
<path d="M93.1113 108.954L104.013 117.428L126.179 96.1213" stroke="#F3F4F6" stroke-width="4" stroke-miterlimit="10"/>
<path d="M90.6914 106.532L101.593 115.007L123.759 93.7001" stroke="#FF746F" stroke-width="4" stroke-miterlimit="10"/>
<path d="M251.786 99.3899H135.504C134.777 99.3899 134.172 98.7846 134.172 98.0583C134.172 97.3319 134.777 96.7266 135.504 96.7266H251.786C252.512 96.7266 253.118 97.3319 253.118 98.0583C253.118 98.7846 252.512 99.3899 251.786 99.3899Z" fill="#6AA5FE"/>
<path d="M251.786 105.443H135.504C134.777 105.443 134.172 104.837 134.172 104.111C134.172 103.385 134.777 102.779 135.504 102.779H251.786C252.512 102.779 253.118 103.385 253.118 104.111C253.118 104.837 252.512 105.443 251.786 105.443Z" fill="#6AA5FE"/>
<path d="M251.786 111.496H135.504C134.777 111.496 134.172 110.89 134.172 110.164C134.172 109.438 134.777 108.832 135.504 108.832H251.786C252.512 108.832 253.118 109.438 253.118 110.164C253.118 110.89 252.512 111.496 251.786 111.496Z" fill="#6AA5FE"/>
<path d="M251.786 117.549H135.504C134.777 117.549 134.172 116.943 134.172 116.217C134.172 115.491 134.777 114.885 135.504 114.885H251.786C252.512 114.885 253.118 115.491 253.118 116.217C253.118 116.943 252.512 117.549 251.786 117.549Z" fill="#6AA5FE"/>
<path d="M118.426 146.603H82.6934V182.316H118.426V146.603Z" stroke="#1A55B5" stroke-miterlimit="10"/>
<path d="M93.1113 166.336L104.013 174.81L126.179 153.503" stroke="#F3F4F6" stroke-width="4" stroke-miterlimit="10"/>
<path d="M90.6914 163.915L101.593 172.389L123.759 151.082" stroke="#FF746F" stroke-width="4" stroke-miterlimit="10"/>
<path d="M251.786 156.772H135.504C134.777 156.772 134.172 156.167 134.172 155.441C134.172 154.714 134.777 154.109 135.504 154.109H251.786C252.512 154.109 253.118 154.714 253.118 155.441C253.118 156.167 252.512 156.772 251.786 156.772Z" fill="#6AA5FE"/>
<path d="M251.786 162.825H135.504C134.777 162.825 134.172 162.22 134.172 161.494C134.172 160.767 134.777 160.162 135.504 160.162H251.786C252.512 160.162 253.118 160.767 253.118 161.494C253.118 162.22 252.512 162.825 251.786 162.825Z" fill="#6AA5FE"/>
<path d="M251.786 168.878H135.504C134.777 168.878 134.172 168.273 134.172 167.547C134.172 166.82 134.777 166.215 135.504 166.215H251.786C252.512 166.215 253.118 166.82 253.118 167.547C253.118 168.273 252.512 168.878 251.786 168.878Z" fill="#6AA5FE"/>
<path d="M251.786 174.931H135.504C134.777 174.931 134.172 174.326 134.172 173.6C134.172 172.873 134.777 172.268 135.504 172.268H251.786C252.512 172.268 253.118 172.873 253.118 173.6C253.118 174.326 252.512 174.931 251.786 174.931Z" fill="#6AA5FE"/>
<path d="M118.426 204.106H82.6934V239.819H118.426V204.106Z" stroke="#1A55B5" stroke-miterlimit="10"/>
<path d="M93.1113 223.718L104.013 232.313L126.179 210.886" stroke="#F3F4F6" stroke-width="4" stroke-miterlimit="10"/>
<path d="M90.6914 221.297L101.593 229.892L123.759 208.464" stroke="#FF746F" stroke-width="4" stroke-miterlimit="10"/>
<path d="M251.786 214.154H135.504C134.777 214.154 134.172 213.549 134.172 212.823C134.172 212.096 134.777 211.491 135.504 211.491H251.786C252.512 211.491 253.118 212.096 253.118 212.823C253.118 213.549 252.512 214.154 251.786 214.154Z" fill="#6AA5FE"/>
<path d="M251.786 220.207H135.504C134.777 220.207 134.172 219.602 134.172 218.876C134.172 218.149 134.777 217.544 135.504 217.544H251.786C252.512 217.544 253.118 218.149 253.118 218.876C253.118 219.602 252.512 220.207 251.786 220.207Z" fill="#6AA5FE"/>
<path d="M251.786 226.26H135.504C134.777 226.26 134.172 225.655 134.172 224.929C134.172 224.202 134.777 223.597 135.504 223.597H251.786C252.512 223.597 253.118 224.202 253.118 224.929C253.118 225.655 252.512 226.26 251.786 226.26Z" fill="#6AA5FE"/>
<path d="M251.786 232.313H135.504C134.777 232.313 134.172 231.708 134.172 230.982C134.172 230.255 134.777 229.65 135.504 229.65H251.786C252.512 229.65 253.118 230.255 253.118 230.982C253.118 231.708 252.512 232.313 251.786 232.313Z" fill="#6AA5FE"/>
<path d="M118.426 261.489H82.6934V297.201H118.426V261.489Z" stroke="#1A55B5" stroke-miterlimit="10"/>
<path d="M93.1113 281.101L104.013 289.696L126.179 268.268" stroke="#F3F4F6" stroke-width="4" stroke-miterlimit="10"/>
<path d="M90.6914 278.679L101.593 287.274L123.759 265.847" stroke="#FF746F" stroke-width="4" stroke-miterlimit="10"/>
<path d="M251.786 271.537H135.504C134.777 271.537 134.172 270.931 134.172 270.205C134.172 269.479 134.777 268.873 135.504 268.873H251.786C252.512 268.873 253.118 269.479 253.118 270.205C253.118 270.931 252.512 271.537 251.786 271.537Z" fill="#6AA5FE"/>
<path d="M251.786 277.59H135.504C134.777 277.59 134.172 276.984 134.172 276.258C134.172 275.532 134.777 274.926 135.504 274.926H251.786C252.512 274.926 253.118 275.532 253.118 276.258C253.118 276.984 252.512 277.59 251.786 277.59Z" fill="#6AA5FE"/>
<path d="M251.786 283.643H135.504C134.777 283.643 134.172 283.037 134.172 282.311C134.172 281.585 134.777 280.979 135.504 280.979H251.786C252.512 280.979 253.118 281.585 253.118 282.311C253.118 283.037 252.512 283.643 251.786 283.643Z" fill="#6AA5FE"/>
<path d="M251.786 289.696H135.504C134.777 289.696 134.172 289.09 134.172 288.364C134.172 287.638 134.777 287.032 135.504 287.032H251.786C252.512 287.032 253.118 287.638 253.118 288.364C253.118 289.09 252.512 289.696 251.786 289.696Z" fill="#6AA5FE"/>
<path d="M155.507 119.849C154.78 120.454 147.997 124.328 147.997 124.328L143.273 118.275L144.727 111.254L155.023 111.859L156.84 117.065C157.203 118.396 156.476 119.123 155.507 119.849Z" fill="#FE9280"/>
<path d="M154.902 111.98L156.477 116.58L151.753 118.517C150.905 118.88 149.815 119.002 148.846 118.759C146.786 118.154 145.454 116.217 145.696 114.038L146.06 111.496L154.902 111.98Z" fill="#E86767"/>
<path d="M152.6 118.033L156.718 118.638L159.019 114.764C159.504 114.038 159.262 113.191 158.535 112.706C157.808 112.222 156.96 112.464 156.476 113.191L152.6 118.033Z" fill="#FF746F"/>
<path d="M149.571 134.497L141.093 136.676L138.064 161.13L147.997 161.493L149.571 134.497Z" fill="white"/>
<path d="M260.885 154.351L246.107 152.535L249.499 125.66L264.276 127.476C271.665 128.444 276.995 135.224 276.026 142.608C275.057 149.993 268.274 155.319 260.885 154.351Z" fill="#FE9280"/>
<path opacity="0.2" d="M261.612 148.298L246.834 146.482L246.107 152.656L260.885 154.472C268.274 155.44 275.057 150.114 276.026 142.729C276.147 141.64 276.147 140.671 276.026 139.582C273.845 145.271 268.031 149.024 261.612 148.298Z" fill="#777470"/>
<path d="M244.292 152.293L87.1914 132.076L90.5829 105.201L247.563 125.418L244.292 152.293Z" fill="#FFC957"/>
<path d="M59.2109 114.885L87.1911 132.076L90.5827 105.201L59.2109 114.885Z" fill="#FFF4DD"/>
<path opacity="0.2" d="M59.2109 114.885L87.1911 132.076L88.039 125.417L59.2109 114.885Z" fill="#777470"/>
<path d="M68.5377 111.98L59.2109 114.885L67.5687 119.97L68.5377 111.98Z" fill="#2A294F"/>
<path d="M260.603 127.066L247.623 125.433L244.234 152.339L257.214 153.972L260.603 127.066Z" fill="#D3EAF5"/>
<path d="M260.777 125.936L256.33 125.377L252.654 154.565L257.101 155.124L260.777 125.936Z" fill="#D3EAF5"/>
<path opacity="0.2" d="M252.771 153.382L87.1914 132.076L88.0393 125.417L253.619 146.845L252.771 153.382Z" fill="#777470"/>
<path opacity="0.05" d="M255.314 133.044L89.7344 111.738L90.5823 105.201L256.162 126.507L255.314 133.044Z" fill="#777470"/>
<path opacity="0.15" d="M258.169 146.188L253.723 145.629L252.603 154.517L257.05 155.077L258.169 146.188Z" fill="#777470"/>
<path d="M192.693 206.77L194.874 201.08L202.383 200.475C203.716 200.354 204.927 201.201 205.048 202.291C205.169 203.501 204.2 204.591 202.747 204.712L192.693 206.77Z" fill="#E86767"/>
<path d="M188.818 201.08L192.694 206.77L200.082 205.317L191.967 193.09L190.392 194.18C187.97 195.632 187.364 198.78 188.818 201.08Z" fill="#FF746F"/>
<path d="M196.086 109.196C188.455 98.0584 169.317 101.085 169.801 118.881V119.002C169.801 121.302 169.801 123.602 169.196 125.66C168.954 126.75 168.348 127.718 167.621 128.444C166.894 129.171 165.804 129.655 164.835 129.776C163.745 130.018 162.655 130.018 161.444 130.26C160.232 130.502 159.021 130.987 158.052 131.592C155.993 132.803 154.176 134.861 153.449 137.282C151.875 142.003 153.086 147.572 156.72 151.083C157.568 151.93 158.658 152.656 159.748 153.262C160.838 153.867 162.17 153.988 163.261 154.23C165.441 154.714 167.742 155.32 170.044 155.804L170.165 155.562C168.106 154.593 165.925 153.625 163.745 152.777C162.534 152.414 161.565 152.172 160.717 151.567C159.869 151.083 159.021 150.356 158.294 149.63C156.841 148.056 155.872 146.119 155.266 144.061C154.661 142.003 154.54 139.824 155.145 137.766C155.751 135.708 157.083 134.013 158.9 132.803C159.748 132.197 160.838 131.834 161.807 131.471C162.897 131.229 163.987 131.108 165.199 130.745C166.41 130.381 167.5 129.897 168.348 128.929C169.196 127.96 169.68 126.871 169.923 125.66C170.044 124.813 170.165 123.965 170.165 123.239C170.407 126.507 170.044 129.897 166.652 131.229C164.714 131.955 162.776 131.955 160.959 133.166C159.142 134.376 157.689 136.071 157.083 138.129C154.903 144.424 160.475 152.535 167.016 153.262C169.68 153.504 172.466 154.23 175.131 154.714C175.858 154.835 186.396 157.014 186.517 156.772L198.751 120.697L196.086 109.196Z" fill="#1A55B5"/>
<path d="M195.479 198.417L220.189 181.226L216.798 171.663L191.846 193.09L195.479 198.417Z" fill="white"/>
<path d="M213.649 178.805C214.86 181.226 217.767 182.316 220.311 181.226C222.734 180.015 223.824 177.11 222.734 174.568C221.522 172.147 218.615 171.057 216.072 172.147C213.528 173.478 212.438 176.384 213.649 178.805Z" fill="white"/>
<path d="M214.858 180.621L221.883 173.6L201.534 150.719C199.232 147.572 194.63 147.209 191.965 149.993C189.179 152.777 189.542 160.283 192.57 162.704L214.858 180.621Z" fill="white"/>
<path d="M180.364 149.033L188.691 149.738L190.174 132.248L181.846 131.543L180.364 149.033Z" fill="#FF746F"/>
<path d="M142.427 157.378C139.641 157.62 137.582 159.92 137.824 162.704C138.066 165.489 140.368 167.547 143.154 167.305C145.94 167.062 147.999 164.762 147.756 161.978C147.514 159.315 145.213 157.257 142.427 157.378Z" fill="white"/>
<path d="M139.277 158.104L144.243 167.063L175.01 158.104C178.765 157.136 180.824 149.993 179.37 146.482C177.917 142.851 173.556 141.398 170.286 143.456L139.277 158.104Z" fill="white"/>
<path d="M186.274 192.606L201.779 154.472C202.505 151.325 200.446 148.298 197.297 147.814L175.01 142.73C171.86 142.245 168.953 144.788 168.832 147.935L161.201 189.459L186.274 192.606Z" fill="white"/>
<path d="M183.851 111.254C181.308 114.523 176.584 115.854 175.494 118.881L175.251 120.212C175.251 120.333 175.251 120.333 175.251 120.454L174.525 124.692C173.677 130.018 177.189 134.982 182.519 135.95C187.848 136.797 192.815 133.287 193.784 127.96L194.632 123.239C194.026 118.275 185.184 117.912 183.851 111.254Z" fill="#FF746F"/>
<path d="M192.694 125.539C192.452 126.749 193.299 127.96 194.511 128.081C195.722 128.323 196.933 127.476 197.054 126.265C197.297 125.055 196.449 123.844 195.237 123.723C194.026 123.481 192.936 124.328 192.694 125.539Z" fill="#FF746F"/>
<path d="M172.223 190.911L183.488 218.392L172.829 347.32H164.592L154.902 217.665L161.322 189.579L172.223 190.911Z" fill="#1A55B5"/>
<path d="M172.225 190.911V218.391L222.613 347.32H228.791L201.901 213.549L186.275 192.606L172.225 190.911Z" fill="#527EE9"/>
<path d="M169.194 354.1H165.682V347.32H170.163L169.194 354.1Z" fill="#FF746F"/>
<path d="M165.559 352.526L167.618 353.373L169.435 352.526L171.131 357.974H155.627L161.441 355.31L165.559 352.526Z" fill="#2A294F"/>
<path d="M226.729 354.1H230.121L228.062 347.32H223.58L226.729 354.1Z" fill="#FF746F"/>
<path d="M230.244 352.526L228.185 353.373L226.368 352.526L224.672 357.974H240.176L234.362 355.31L230.244 352.526Z" fill="#2A294F"/>
<path d="M176.463 163.551C176.463 167.425 173.314 170.573 169.437 170.573C165.561 170.573 162.412 167.425 162.412 163.551C162.412 159.677 165.561 156.53 169.437 156.53C173.314 156.53 176.463 159.677 176.463 163.551Z" fill="white"/>
<path d="M175.736 142.972L176.584 158.104L189.666 144.787L175.736 142.972Z" fill="#FF746F"/>
<path d="M204.078 112.343C202.988 110.891 201.656 109.801 200.081 108.954C197.659 107.622 194.873 107.743 192.571 105.806L194.388 123.602C197.659 122.633 197.416 129.655 193.662 127.718C193.662 127.718 186.273 130.865 183.487 137.766C181.549 142.366 181.185 147.814 181.791 150.961C182.639 156.53 187.363 159.435 192.814 157.741C195.963 156.772 198.628 154.351 200.445 151.567C206.864 141.761 211.225 125.66 205.653 114.643C205.169 113.917 204.684 113.191 204.078 112.343Z" fill="#1A55B5"/>
<path d="M144.609 110.286L144.488 111.375C144.124 113.675 145.699 115.975 148.121 116.339L149.938 116.581C152.24 116.944 154.541 115.37 154.904 112.949L155.026 111.859L144.609 110.286Z" fill="#FF746F"/>
<path d="M184.095 125.418C183.489 125.055 179.734 124.328 179.25 124.57C178.765 124.812 178.523 125.539 178.644 126.023C178.765 126.628 179.129 126.992 179.613 127.355C180.703 128.081 182.157 128.202 183.368 127.597C183.853 127.355 184.216 127.113 184.458 126.628C184.579 126.265 184.579 125.66 184.095 125.418Z" fill="white"/>
</svg>
