<svg width="472" height="314" viewBox="0 0 472 314" fill="none" xmlns="http://www.w3.org/2000/svg">
<path d="M454.39 226.192C457.18 221.483 459.272 216.513 460.667 211.368L471.826 209.275L471.913 196.98L472 184.685L460.928 182.331C459.621 177.186 457.615 172.129 454.913 167.42L461.277 158.09L452.646 149.283L444.015 140.476L434.512 146.667C429.805 143.877 424.835 141.784 419.692 140.389L417.599 129.227L405.307 129.14L393.014 129.053L390.66 140.127C385.517 141.435 380.46 143.441 375.752 146.144L366.424 139.778L357.619 148.411L348.813 157.044L355.003 166.548C352.213 171.257 350.121 176.227 348.726 181.372L337.567 183.465L337.48 195.759L337.393 208.054L348.465 210.409C349.772 215.553 351.777 220.611 354.48 225.32L348.116 234.65L356.747 243.457L365.378 252.264L374.88 246.073C379.588 248.863 384.558 250.956 389.701 252.351L391.794 263.512L404.086 263.599L416.379 263.687L418.733 252.613C423.876 251.305 428.933 249.299 433.641 246.596L442.969 252.961L451.774 244.329L460.58 235.696L454.39 226.192ZM383.163 217.472C371.48 205.613 371.655 186.516 383.599 174.832C395.455 163.147 414.548 163.322 426.23 175.268C437.912 187.127 437.738 206.223 425.794 217.908C413.938 229.505 394.845 229.331 383.163 217.472Z" fill="#3FD0FF"/>
<path d="M162.243 126.873C163.987 123.211 165.12 119.287 165.818 115.363L173.925 112.921L173.054 103.766L172.182 94.6099L163.812 93.7379C162.505 89.9884 160.587 86.4133 158.233 83.0998L162.243 75.6879L155.182 69.8457L148.12 64.0034L141.581 69.3225C137.92 67.5785 133.996 66.4449 130.073 65.7474L127.632 57.6379L118.478 58.5099L109.324 59.3819L108.452 67.7529C104.704 69.0609 101.129 70.9792 97.8163 73.3336L90.4059 69.3225L84.5647 76.3855L78.7236 83.4485L84.0417 89.9884C82.298 93.6507 81.1647 97.5746 80.4672 101.499L72.3594 103.94L73.2312 113.096L74.103 122.252L82.4724 123.124C83.7801 126.873 85.6981 130.448 88.052 133.762L84.0417 141.174L91.1033 147.016L98.165 152.858L104.704 147.539C108.365 149.283 112.288 150.417 116.212 151.114L118.653 159.224L127.807 158.352L136.961 157.48L137.832 149.109C141.581 147.801 145.156 145.882 148.469 143.528L155.879 147.539L161.72 140.476L167.561 133.413L162.243 126.873ZM108.714 125.827C99.124 117.892 97.8163 103.678 105.75 94.0867C113.683 84.4949 127.894 83.187 137.484 91.122C147.074 99.057 148.381 113.27 140.448 122.862C132.427 132.454 118.217 133.762 108.714 125.827Z" fill="#2D9CDB"/>
<path d="M433.639 311.82H432.854V256.972C432.854 244.765 422.916 234.824 410.71 234.824H354.304C341.663 234.824 331.375 224.535 331.375 211.891V109.521C331.375 97.313 321.437 87.3724 309.231 87.3724H165.557V86.5876H309.318C321.96 86.5876 332.247 96.877 332.247 109.521V211.978C332.247 224.186 342.186 234.127 354.391 234.127H410.797C423.439 234.127 433.726 244.416 433.726 257.06V311.82H433.639Z" fill="#64A4FF"/>
<path d="M202.435 51.97C202.435 51.97 211.153 86.5876 190.229 96.0922C169.306 105.597 173.316 88.2443 173.316 88.2443C173.316 88.2443 164.772 85.89 188.05 72.6359C199.122 66.3576 202.435 51.97 202.435 51.97Z" fill="#BBD070"/>
<path d="M257.183 54.9346C257.183 54.9346 261.455 85.1051 221.962 98.1848C182.382 111.264 176.802 127.832 176.802 127.832C176.802 127.832 175.494 60.9512 257.183 54.9346Z" fill="#97A43C"/>
<path d="M176.543 115.537C164.86 111.09 192.671 87.0236 214.118 87.7212C235.564 88.3315 250.036 96.2666 264.421 92.953C264.334 92.953 234.257 137.598 176.543 115.537Z" fill="#48753A"/>
<path d="M215.947 135.593C216.644 126.524 217.08 117.979 217.342 110.044C215.162 108.91 212.46 107.515 210.367 106.556C203.829 103.417 194.675 99.2313 188.834 96.5281C185.434 94.9586 182.033 93.825 182.033 93.825C182.033 93.825 158.669 91.5578 156.751 91.7322C156.141 91.7322 153.264 92.7786 149.428 94.261C141.145 97.4001 125.191 103.853 122.576 105.684C118.827 108.387 105.488 173.873 105.14 178.32C104.791 182.68 123.273 188.522 140.448 193.056C140.448 199.683 140.274 209.014 140.186 217.472C140.186 218.954 140.099 220.349 140.099 221.744H215.075C214.988 220.262 214.901 218.867 214.814 217.472C214.814 217.297 214.814 217.123 214.814 216.949C214.552 211.193 213.419 200.904 213.68 190.876C213.68 190.876 213.506 180.325 214.552 175.791C214.726 155.561 215.947 135.593 215.947 135.593ZM120.832 174.134C120.919 165.589 132.34 149.719 132.34 149.719C132.34 149.719 132.863 149.457 132.863 149.544L133.474 149.457L135.217 147.801C135.653 149.283 139.402 170.734 140.274 183.203C129.638 181.11 120.745 178.145 120.832 174.134Z" fill="#DBD8E3"/>
<path d="M217.342 217.385C216.818 213.81 216.383 210.322 215.947 206.834C215.947 206.834 215.947 206.834 215.947 206.747C215.772 205.613 215.685 204.479 215.511 203.346C215.511 203.259 215.511 203.259 215.511 203.172C214.988 198.376 214.465 193.754 214.203 189.569C213.941 186.342 214.203 183.203 214.639 180.151C215.947 158.613 216.557 136.029 216.557 136.029C217.254 126.786 217.603 118.066 217.865 109.957C217.865 109.957 188.485 96.0924 185.869 95.3076C185.869 95.3076 191.449 108.387 195.633 137.599C197.203 148.847 200.254 167.769 202.346 187.04C203.48 197.416 205.746 208.055 207.403 217.472C207.664 218.954 207.926 220.35 208.1 221.745H217.952C217.69 220.175 217.516 218.78 217.342 217.385Z" fill="#323657"/>
<path d="M168.434 182.854C169.567 171.954 170.613 161.142 170.09 155.212C166.08 107.428 154.572 94.7842 152.915 92.9531C151.608 93.4762 146.726 95.3074 145.331 95.8306C137.484 98.8825 121.53 104.55 119.351 106.12C115.602 108.823 100.868 177.448 100.432 181.895C100.171 184.86 119.351 191.138 138.966 196.806C138.792 202.212 139.315 209.798 137.484 217.646C137.136 219.041 136.7 219.913 136.613 221.832L163.9 221.744C164.075 220.349 164.249 218.954 164.423 217.472C164.946 213.199 165.47 208.839 165.993 204.218C174.188 206.31 179.767 207.706 179.767 207.706C179.767 207.706 187.439 194.713 189.706 189.394C190.229 188.348 180.29 185.993 168.434 182.854ZM133.125 166.374C132.864 156.608 132.951 149.806 132.951 149.806C133.91 153.12 135.218 162.711 136.438 172.216C132.428 170.21 133.125 168.379 133.125 166.374Z" fill="#323657"/>
<path d="M155.615 92.4301C155.615 92.4301 158.579 86.8494 157.795 70.8922C157.533 66.4451 180.985 81.3559 180.985 81.3559C180.985 81.3559 180.898 82.8383 180.811 84.9311C180.811 85.803 180.811 86.7622 180.811 87.7214C180.811 87.983 180.811 88.2446 180.811 88.5062C180.811 88.9422 180.811 89.3781 180.811 89.8141C180.811 90.3373 180.811 90.8605 180.898 91.3837C180.898 91.9941 180.985 92.5173 180.985 93.0405C181.072 93.9996 181.682 95.7436 181.857 96.1796C182.903 98.5339 164.333 98.7083 155.615 92.4301Z" fill="#EEA987"/>
<path d="M175.234 102.545L179.593 108.387C179.593 108.387 177.065 111.788 172.531 109.259L175.234 102.545Z" fill="#E8734D"/>
<path d="M178.369 108.649C178.369 108.649 194.236 147.277 190.836 196.457L185.867 205.526L180.2 197.765C180.2 197.765 179.328 132.541 174.795 108.474L178.369 108.649Z" fill="#E8734D"/>
<path d="M179.853 97.1387L175.233 102.545C175.233 102.545 167.822 101.15 165.643 97.2259C163.463 93.3892 179.853 97.1387 179.853 97.1387Z" fill="#EEA987"/>
<path d="M180.899 92.4299C180.899 92.4299 180.376 96.5282 175.232 102.545L180.812 110.131L183.863 94.4355L180.899 92.4299Z" fill="#C4C1CC"/>
<path d="M157.013 87.4597C157.013 87.4597 167.737 99.5802 175.234 102.545L171.747 111.178L154.572 92.3428L157.013 87.4597Z" fill="#C4C1CC"/>
<path d="M267.383 197.329C267.383 197.329 253.172 183.465 243.757 181.198C239.398 180.151 233.731 174.135 228.326 167.159C226.582 164.892 224.838 162.45 223.095 160.008C216.469 150.417 211.238 141.261 211.238 141.261C211.238 141.261 191.622 118.241 207.402 108.038C207.402 108.038 214.115 107.864 217.864 109.87C221.7 111.962 229.808 128.879 231.115 131.844C232.51 134.808 247.418 162.712 248.377 163.322C249.336 163.932 251.08 166.2 257.008 169.426C264.331 173.35 275.752 184.86 275.752 184.86L267.383 197.329Z" fill="#323657"/>
<path d="M198.945 213.374C198.945 213.374 196.94 213.286 196.068 212.85C196.068 212.85 194.586 211.891 193.453 211.281C193.104 211.106 192.756 210.932 192.581 210.845C191.709 210.496 189.704 209.973 187.786 208.578C185.955 207.182 179.766 201.427 179.766 201.427L183.689 195.324L185.52 189.307C185.52 189.307 199.73 190.702 201.648 191.836C201.822 191.923 201.997 192.097 202.171 192.184C203.653 193.318 204.351 194.8 205.048 195.411C205.31 195.672 207.838 198.288 207.664 199.422C207.489 200.904 206.705 201.863 205.833 202.299C205.833 202.299 205.31 205.177 203.828 206.485C203.828 206.485 203.479 209.188 201.125 210.234C201.299 210.322 200.602 213.025 198.945 213.374Z" fill="#EFAA88"/>
<path d="M176.278 29.6473C176.278 29.6473 201.997 23.4563 196.591 56.0683C191.186 88.6804 184.996 91.2963 169.304 84.8436C153.611 78.3038 154.744 57.4635 153.785 47.2613C152.826 37.0592 168.083 30.1705 176.278 29.6473Z" fill="#EEA886"/>
<path d="M162.767 52.2316C162.418 49.354 156.664 48.3948 156.315 52.6676C155.879 56.9403 159.105 64.4393 161.198 63.7417C163.29 62.9569 163.29 56.1555 162.767 52.2316Z" fill="#EEA886"/>
<path d="M155.268 63.9162C155.268 63.9162 155.791 53.6268 159.54 53.278C163.289 52.9292 163.899 57.0275 163.899 57.0275L167.648 57.7251C167.648 57.7251 166.34 48.7437 170.002 47.1742C173.751 45.5174 194.238 51.7957 197.202 49.0925C200.167 46.3894 198.51 28.2522 193.018 25.8107C187.525 23.3691 172.53 18.05 161.632 25.6363C161.632 25.6363 153.089 24.7643 151.868 31.7401C150.909 38.5416 152.914 58.8587 155.268 63.9162Z" fill="#16202E"/>
<path d="M190.489 189.307L179.852 207.619C179.852 207.619 151.693 200.381 145.154 198.55L160.149 180.674C160.149 180.587 182.293 185.645 190.489 189.307Z" fill="#323657"/>
<path d="M180.813 91.2965C167.038 89.9013 161.633 79.2632 161.633 79.2632C170.351 87.8958 180.726 87.6342 180.726 87.6342C180.726 87.8958 180.726 88.1574 180.726 88.419C180.726 88.855 180.726 89.291 180.726 89.7269C180.813 90.3373 180.813 90.8605 180.813 91.2965Z" fill="#A77860"/>
<path d="M371.567 253.31C370.783 252.351 369.649 251.653 368.254 251.653C366.423 251.653 364.767 252.787 364.244 254.531C364.07 254.967 364.07 255.403 363.982 255.839C363.982 256.362 364.07 256.885 364.244 257.321C364.505 258.106 365.029 258.716 365.639 259.24C366.249 259.676 367.034 260.024 367.818 260.112C367.906 260.112 368.08 260.112 368.167 260.112C368.254 260.112 368.341 260.112 368.341 260.112H368.429C368.865 260.112 369.213 260.024 369.649 259.85C371.218 259.24 372.352 257.757 372.439 255.926C372.352 254.967 372.09 254.095 371.567 253.31ZM369.213 258.804C368.952 258.891 368.603 258.978 368.341 258.978C368.254 258.978 368.167 258.978 368.167 258.978C367.906 258.978 367.557 258.891 367.295 258.804C366.947 258.716 366.598 258.542 366.249 258.28C366.162 258.193 366.075 258.106 365.9 258.019C365.29 257.408 364.941 256.624 365.029 255.752C365.029 255.49 365.029 255.316 365.116 255.054C365.116 254.967 365.203 254.88 365.203 254.705C365.639 253.484 366.859 252.525 368.254 252.525C369.3 252.525 370.172 253.048 370.695 253.746C371.131 254.269 371.393 254.967 371.306 255.664C371.306 257.234 370.434 258.368 369.213 258.804Z" fill="#4DA8F2"/>
<path d="M210.455 174.222C226.496 190.702 247.594 211.455 247.594 211.455L255.876 195.759C255.876 195.759 237.133 173.698 224.404 159.049C220.481 160.967 213.332 165.589 210.455 174.222Z" fill="#EEA886"/>
<path d="M200.603 196.457C200.603 196.457 204.875 198.55 206.009 199.509C207.142 200.468 211.675 203.869 212.809 204.654C213.942 205.438 211.152 207.706 202.957 204.218C194.849 200.555 200.603 196.457 200.603 196.457Z" fill="#EEA886"/>
<path d="M200.953 149.283L193.455 219.129H292.319L299.816 149.283H200.953Z" fill="#FFC955"/>
<path d="M297.984 215.902H198.336L205.921 145.272H305.569L297.984 215.902ZM199.208 215.118H297.287L304.697 146.057H206.618L199.208 215.118Z" fill="#FFC955"/>
<path d="M185.652 219.048H202.129V212.769H185.652V219.048Z" fill="#FFC955"/>
<path d="M30.8631 218.954H26.7656V223.227H30.8631V218.954Z" fill="#96CBFF"/>
<path d="M35.0467 218.954H30.9492V223.227H35.0467V218.954Z" fill="#95CAFF"/>
<path d="M39.1444 218.954H35.0469V223.227H39.1444V218.954Z" fill="#94C9FF"/>
<path d="M43.3299 218.954H39.2324V223.227H43.3299V218.954Z" fill="#93C9FF"/>
<path d="M47.4256 218.954H43.3281V223.227H47.4256V218.954Z" fill="#92C8FF"/>
<path d="M51.5252 218.954H47.4277V223.227H51.5252V218.954Z" fill="#91C7FF"/>
<path d="M55.7088 218.954H51.6113V223.227H55.7088V218.954Z" fill="#90C6FF"/>
<path d="M59.8065 218.954H55.709V223.227H59.8065V218.954Z" fill="#8FC6FF"/>
<path d="M63.9901 218.954H59.8926V223.227H63.9901V218.954Z" fill="#8EC5FF"/>
<path d="M68.0917 218.954H63.9941V223.227H68.0917V218.954Z" fill="#8DC4FF"/>
<path d="M72.1854 218.954H68.0879V223.227H72.1854V218.954Z" fill="#8CC3FF"/>
<path d="M76.371 218.954H72.2734V223.227H76.371V218.954Z" fill="#8BC2FF"/>
<path d="M80.4667 218.954H76.3691V223.227H80.4667V218.954Z" fill="#8AC2FF"/>
<path d="M84.6522 218.954H80.5547V223.227H84.6522V218.954Z" fill="#89C1FF"/>
<path d="M88.7518 218.954H84.6543V223.227H88.7518V218.954Z" fill="#88C0FF"/>
<path d="M92.8475 218.954H88.75V223.227H92.8475V218.954Z" fill="#87BFFF"/>
<path d="M97.0331 218.954H92.9355V223.227H97.0331V218.954Z" fill="#86BFFF"/>
<path d="M101.131 218.954H97.0332V223.227H101.131V218.954Z" fill="#85BEFF"/>
<path d="M105.314 218.954H101.217V223.227H105.314V218.954Z" fill="#84BDFF"/>
<path d="M109.412 218.954H105.314V223.227H109.412V218.954Z" fill="#83BCFF"/>
<path d="M113.512 218.954H109.414V223.227H113.512V218.954Z" fill="#82BBFF"/>
<path d="M117.695 218.954H113.598V223.227H117.695V218.954Z" fill="#81BBFF"/>
<path d="M121.793 218.954H117.695V223.227H121.793V218.954Z" fill="#80BAFF"/>
<path d="M125.976 218.954H121.879V223.227H125.976V218.954Z" fill="#7FB9FF"/>
<path d="M130.074 218.954H125.977V223.227H130.074V218.954Z" fill="#7EB8FF"/>
<path d="M134.172 218.954H130.074V223.227H134.172V218.954Z" fill="#7DB7FF"/>
<path d="M138.359 218.954H134.262V223.227H138.359V218.954Z" fill="#7CB7FF"/>
<path d="M142.453 218.954H138.355V223.227H142.453V218.954Z" fill="#7BB6FF"/>
<path d="M146.64 218.954H142.543V223.227H146.64V218.954Z" fill="#7AB5FF"/>
<path d="M150.734 218.954H146.637V223.227H150.734V218.954Z" fill="#79B4FF"/>
<path d="M154.834 218.954H150.736V223.227H154.834V218.954Z" fill="#78B4FF"/>
<path d="M159.019 218.954H154.922V223.227H159.019V218.954Z" fill="#77B3FF"/>
<path d="M163.115 218.954H159.018V223.227H163.115V218.954Z" fill="#76B2FF"/>
<path d="M167.301 218.954H163.203V223.227H167.301V218.954Z" fill="#74B1FF"/>
<path d="M171.398 218.954H167.301V223.227H171.398V218.954Z" fill="#73B0FF"/>
<path d="M175.584 218.954H171.486V223.227H175.584V218.954Z" fill="#72B0FF"/>
<path d="M179.682 218.954H175.584V223.227H179.682V218.954Z" fill="#71AFFF"/>
<path d="M183.779 218.954H179.682V223.227H183.779V218.954Z" fill="#70AEFF"/>
<path d="M187.963 218.954H183.865V223.227H187.963V218.954Z" fill="#6FADFF"/>
<path d="M192.06 218.954H187.963V223.227H192.06V218.954Z" fill="#6EADFF"/>
<path d="M196.246 218.954H192.148V223.227H196.246V218.954Z" fill="#6DACFF"/>
<path d="M200.342 218.954H196.244V223.227H200.342V218.954Z" fill="#6CABFF"/>
<path d="M204.439 218.954H200.342V223.227H204.439V218.954Z" fill="#6BAAFF"/>
<path d="M208.625 218.954H204.527V223.227H208.625V218.954Z" fill="#6AA9FF"/>
<path d="M212.721 218.954H208.623V223.227H212.721V218.954Z" fill="#69A9FF"/>
<path d="M216.908 218.954H212.811V223.227H216.908V218.954Z" fill="#68A8FF"/>
<path d="M221.004 218.954H216.906V223.227H221.004V218.954Z" fill="#67A7FF"/>
<path d="M225.103 218.954H221.006V223.227H225.103V218.954Z" fill="#66A6FF"/>
<path d="M229.287 218.954H225.189V223.227H229.287V218.954Z" fill="#65A6FF"/>
<path d="M233.383 218.954H229.285V223.227H233.383V218.954Z" fill="#64A5FF"/>
<path d="M237.568 218.954H233.471V223.227H237.568V218.954Z" fill="#63A4FF"/>
<path d="M241.666 218.954H237.568V223.227H241.666V218.954Z" fill="#62A3FF"/>
<path d="M245.764 218.954H241.666V223.227H245.764V218.954Z" fill="#61A2FF"/>
<path d="M249.949 218.954H245.852V223.227H249.949V218.954Z" fill="#60A2FF"/>
<path d="M254.047 218.954H249.949V223.227H254.047V218.954Z" fill="#5FA1FF"/>
<path d="M258.23 218.954H254.133V223.227H258.23V218.954Z" fill="#5EA0FF"/>
<path d="M262.328 218.954H258.23V223.227H262.328V218.954Z" fill="#5D9FFF"/>
<path d="M266.428 218.954H262.33V223.227H266.428V218.954Z" fill="#5C9EFF"/>
<path d="M270.611 218.954H266.514V223.227H270.611V218.954Z" fill="#5B9EFF"/>
<path d="M274.709 218.954H270.611V223.227H274.709V218.954Z" fill="#5A9DFF"/>
<path d="M278.892 218.954H274.795V223.227H278.892V218.954Z" fill="#599CFF"/>
<path d="M282.99 218.954H278.893V223.227H282.99V218.954Z" fill="#589BFF"/>
<path d="M287.09 218.954H282.992V223.227H287.09V218.954Z" fill="#579BFF"/>
<path d="M291.271 218.954H287.174V223.227H291.271V218.954Z" fill="#569AFF"/>
<path d="M295.371 218.954H291.273V223.227H295.371V218.954Z" fill="#5599FF"/>
<path d="M459.62 309.727H226.846V314H459.62V309.727Z" fill="#FFC955"/>
<path d="M241.143 183.029C240.358 186.952 242.189 190.528 245.153 191.225C248.204 191.836 251.256 189.22 252.04 185.296C252.825 181.372 250.994 177.709 248.03 177.099C245.066 176.489 241.927 179.192 241.143 183.029Z" fill="#CFA345"/>
<path d="M429.716 155.387C429.716 155.387 431.983 159.224 432.942 159.921C434.25 160.793 433.465 161.665 432.768 161.665C432.157 161.665 429.019 161.927 428.321 161.142C427.624 160.357 427.275 158.003 426.665 157.392C426.055 156.782 425.357 154.34 427.014 153.73C428.409 153.032 429.716 155.387 429.716 155.387Z" fill="#6069A8"/>
<path d="M428.669 153.643C428.669 153.643 431.285 158.177 431.72 158.875C432.156 159.572 430.849 159.572 430.064 159.224C429.279 158.875 427.274 155.648 426.925 155.038C426.577 154.34 426.838 153.556 426.838 153.556L428.669 153.643Z" fill="#202338"/>
<path d="M426.053 156.084L426.663 160.793H426.925L426.838 157.392L426.053 156.084Z" fill="#6069A8"/>
<path d="M407.048 155.387C407.048 155.387 409.315 159.224 410.274 159.921C411.582 160.793 410.797 161.665 410.1 161.665C409.489 161.665 406.351 161.927 405.653 161.142C404.956 160.357 404.607 158.003 403.997 157.392C403.387 156.782 402.689 154.253 404.346 153.73C405.741 153.12 407.048 155.387 407.048 155.387Z" fill="#6069A8"/>
<path d="M406.178 153.643C406.178 153.643 408.619 158.177 409.142 158.788C409.578 159.485 408.271 159.485 407.486 159.136C406.701 158.788 404.696 155.561 404.347 154.951C403.999 154.253 404.26 153.469 404.26 153.469L406.178 153.643Z" fill="#202338"/>
<path d="M403.475 156.084L403.998 160.793H404.347L404.259 157.392L403.475 156.084Z" fill="#6069A8"/>
<path d="M396.936 120.159L417.598 129.576C417.598 129.576 419.864 130.361 420.126 132.89C420.91 140.912 426.926 153.556 426.926 153.556C428.844 154.515 428.67 153.643 428.67 153.643C427.449 149.806 425.967 133.762 425.444 127.396C425.357 126.001 425.269 125.129 425.269 124.78C425.269 124.606 425.008 124.344 424.659 123.996C421.869 121.728 410.187 116.933 410.187 116.933C401.469 116.758 396.936 120.159 396.936 120.159Z" fill="#202338"/>
<path d="M393.1 124.257C393.71 129.838 401.731 129.227 401.731 129.227H411.408C411.408 129.227 408.88 134.895 407.921 139.604C406.875 144.661 404.434 153.556 404.434 153.556C404.434 153.556 404.608 153.817 406.352 153.73C406.352 153.73 413.936 138.645 416.813 134.808C417.424 134.023 419.254 129.576 419.516 126.873C419.603 126.001 419.516 125.304 419.254 125.042C418.906 124.78 418.121 124.257 417.162 123.56C414.111 121.641 408.88 118.676 406.003 118.066C402.08 117.194 395.89 115.537 395.89 115.537C395.89 115.537 392.403 118.676 393.1 124.257Z" fill="#202338"/>
<path d="M399.638 81.2686C399.638 81.2686 398.155 78.5654 398.94 75.6007C399.638 72.7232 402.34 69.7584 406.35 71.0664C410.361 72.3744 413.499 75.5135 411.145 79.0886C408.792 82.6637 413.325 84.2333 412.104 85.9773C410.971 87.634 411.407 89.4652 411.843 89.814C412.366 90.25 413.935 91.6451 413.761 93.3019C413.587 94.9587 406.089 88.4188 406.089 88.4188C406.089 88.4188 401.904 80.2222 399.638 81.2686Z" fill="#464240"/>
<path d="M411.758 116.322C411.758 116.322 411.148 119.2 395.717 115.537C395.717 115.537 400.86 113.793 411.758 116.322Z" fill="#EB4747"/>
<path d="M395.54 116.409C395.278 116.845 395.104 117.281 394.842 117.804C400.509 117.979 406.089 118.153 411.755 118.328C410.884 115.363 411.145 111.265 411.319 108.213C411.494 104.463 413.586 101.847 413.325 98.0976C414.458 98.272 414.632 98.272 415.766 98.4464C414.022 93.5633 413.499 91.209 408.181 89.2906C406.437 88.6802 405.304 88.5931 403.473 88.6802C397.37 89.2034 395.452 89.2906 392.488 94.7841C397.196 95.5689 396.411 97.2256 397.894 101.934C398.591 104.201 399.288 106.817 398.94 109.172C398.504 111.613 395.54 114.229 395.54 116.409Z" fill="#5F8CC9"/>
<path d="M405.304 90.4243C402.776 89.9883 403.299 88.5931 403.299 88.5931C403.299 88.5931 403.386 87.8084 403.473 86.8492C403.473 86.5876 403.473 86.326 403.473 86.0644C403.473 85.6284 403.473 85.1924 403.386 84.8436C403.212 83.1869 407.919 84.146 407.919 84.146C407.919 84.146 407.658 87.5468 408.268 88.5931C409.053 89.4651 407.832 90.8603 405.304 90.4243Z" fill="#EEA886"/>
<path d="M400.512 88.5058C400.512 88.5058 405.568 94.3481 407.486 95.7432C407.486 95.7432 409.666 93.8249 408.271 88.6802C408.271 88.6802 405.83 87.4594 400.512 88.5058Z" fill="#EEA886"/>
<path d="M400.684 74.4672C400.684 74.4672 398.068 79.5246 400.684 84.3205C403.299 89.1164 408.443 82.2278 408.792 81.443C409.14 80.6582 410.884 76.0367 407.397 74.6416C403.822 73.2464 401.469 73.072 400.684 74.4672Z" fill="#EEA886"/>
<path d="M401.556 76.2111C401.556 76.2111 399.725 78.5654 399.551 80.3094C399.551 80.3094 398.854 76.9959 400.859 73.7695C402.864 70.5432 408.095 73.5951 408.792 74.9031C409.49 76.2111 411.495 77.3447 408.095 82.7509C408.095 82.8381 401.905 78.5654 401.556 76.2111Z" fill="#464240"/>
<path d="M405.741 84.8435C405.741 84.8435 405.305 85.8027 403.475 86.7619C403.475 86.5003 403.475 86.2387 403.475 85.9771C403.562 85.9771 404.782 85.8027 405.741 84.8435Z" fill="#A77860"/>
<path d="M379.151 111.788C379.151 111.788 377.93 112.311 377.32 112.049C376.71 111.788 375.838 111.788 375.489 111.788C375.14 111.788 373.92 111.352 373.92 111.788C373.92 112.224 375.925 112.573 376.274 112.747C376.71 112.921 375.053 113.793 374.966 114.142C374.792 114.491 376.623 117.107 377.582 116.322C378.628 115.624 379.151 114.142 379.325 114.055C379.5 113.968 380.11 113.532 380.11 113.532L379.151 111.788Z" fill="#EEA886"/>
<path d="M375.141 113.968C375.141 113.968 372.177 116.409 372.177 116.758C372.089 117.107 372.264 117.281 372.612 117.02C372.874 116.845 375.489 114.753 375.489 114.753C375.489 114.753 372.525 118.24 372.438 118.502C372.351 118.676 372.7 118.938 372.787 118.851C372.961 118.764 376.1 115.45 376.1 115.45C376.1 115.45 373.397 118.676 373.31 118.938C373.31 119.112 373.659 119.374 373.833 119.112C374.095 118.851 376.797 116.061 376.797 116.061C376.797 116.061 374.966 118.589 375.054 118.764C375.141 118.938 375.315 119.2 375.838 118.502C376.274 117.804 377.495 116.409 377.495 116.409L375.141 113.968Z" fill="#EEA886"/>
<path d="M410.274 129.14H401.643C401.643 129.14 393.71 129.751 393.012 124.17C392.402 118.589 395.628 115.537 395.628 115.537C395.628 115.537 399.813 116.671 403.474 117.543C405.305 117.194 407.572 116.933 410.1 116.933C410.1 116.933 425.705 122.077 425.182 124.78C425.269 124.868 418.818 121.38 410.274 129.14Z" fill="#FFC955"/>
<path d="M404.693 119.548L421.171 119.287L412.801 123.472L404.693 119.548Z" fill="#5E5853"/>
<path d="M409.837 117.369C409.837 117.369 406.089 118.764 401.555 117.543L401.381 115.886L410.709 116.409L409.837 117.369Z" fill="#5F8CC9"/>
<path d="M412.801 123.472L404.693 120.333V119.549L413.499 122.688L412.801 123.472Z" fill="#91887F"/>
<path d="M409.75 118.153C409.663 118.764 410.361 119.2 410.884 118.938L411.843 118.502C412.104 118.415 412.279 118.066 412.279 117.805C411.843 115.276 411.058 105.597 412.279 103.94C412.715 103.33 413.063 102.806 413.15 102.283C413.935 104.376 414.981 107.166 415.417 108.649L423.176 119.025L425.792 119.723C422.566 111.875 419.951 107.69 419.951 107.69C419.427 106.294 417.945 102.196 416.725 98.5338C415.94 96.1794 415.156 94.0867 414.72 92.8659C414.545 92.2555 414.109 91.8195 413.586 91.4708C412.366 90.7732 410.361 89.6396 408.53 88.7676C408.443 88.7676 408.443 88.6804 408.355 88.6804C411.756 93.9123 410.448 108.736 409.75 118.153Z" fill="#EDDAD3"/>
<path d="M396.849 89.1163C395.715 89.2907 393.013 91.9938 391.531 94.697C389.874 97.7489 388.131 101.237 386.91 102.458C384.556 104.55 378.018 112.049 377.669 111.875C377.582 111.788 379.5 114.142 379.674 114.229C379.761 114.317 390.397 105.074 391.444 103.678C392.403 102.37 395.018 96.7897 395.803 96.8769C395.89 96.9641 396.762 99.0569 397.721 102.022C397.721 102.109 397.721 102.109 397.808 102.196C398.418 104.289 398.331 106.556 398.069 109.085C397.808 111.003 396.413 114.142 395.541 115.712C395.454 115.886 395.454 116.235 395.541 116.496C395.628 116.671 395.715 116.758 395.803 116.845L398.941 117.979L399.639 118.24C400.162 118.415 400.685 118.328 401.121 118.066C401.469 117.804 401.731 117.456 401.731 117.02C402.428 111.701 403.3 106.207 403.998 104.202C407.049 95.1329 402.777 88.4187 402.777 88.4187C402.777 88.4187 397.895 88.7675 396.849 89.1163Z" fill="#EDDAD3"/>
<path d="M412.803 123.472L417.772 110.131L433.552 110.393L428.844 122.688L412.803 123.472Z" fill="#6E6760"/>
<path d="M422.828 116.06C422.305 117.02 422.479 118.066 423.176 118.415C423.874 118.763 424.746 118.24 425.269 117.281C425.792 116.322 425.617 115.276 424.92 114.927C424.222 114.578 423.263 115.101 422.828 116.06Z" fill="#807066"/>
<path d="M406.178 79.5247C406.178 79.5247 407.224 81.0942 406.265 82.4894C405.306 83.8846 406.526 85.1925 406.701 86.5877C406.875 87.9829 402.778 91.8196 407.398 93.7379C411.932 95.6563 413.414 92.5171 412.28 90.7732C411.147 89.0292 410.275 87.6341 410.188 85.1053C410.014 82.5766 409.142 78.6527 406.178 79.5247Z" fill="#464240"/>
<path d="M383.857 72.9846H393.36V79.8733V81.3556L391.878 79.8733H383.857V72.9846Z" fill="#FFCB55"/>
<path d="M330.33 178.93C330.33 178.93 309.581 198.724 319.694 214.071C329.807 229.418 334.515 215.989 334.515 215.989C334.515 215.989 341.315 218.082 331.202 199.073C326.407 190.092 330.33 178.93 330.33 178.93Z" fill="#BBD070"/>
<path d="M291.971 157.479C291.971 157.479 276.104 176.14 297.29 201.95C318.475 227.761 315.249 241.451 315.249 241.451C315.249 241.451 344.716 196.544 291.971 157.479Z" fill="#97A43C"/>
<path d="M320.044 233.603C329.896 235.609 321.962 206.921 307.142 198.114C292.321 189.394 279.069 188.522 270.787 180.064C270.787 180.151 271.397 223.837 320.044 233.603Z" fill="#48753A"/>
<path d="M255.525 246.247C255.525 246.247 255.961 245.113 256.048 244.939C256.136 244.765 256.572 244.503 257.095 244.241C257.618 243.98 258.49 243.805 258.577 243.893C258.664 243.98 258.751 243.98 258.925 244.154C259.013 244.416 259.013 244.677 259.013 244.677C259.013 244.677 259.274 244.939 259.187 245.201C259.187 245.201 259.449 245.462 259.274 245.811C259.274 245.811 259.536 246.073 259.361 246.247C259.361 246.247 258.925 246.509 258.751 246.683C258.577 246.857 257.705 247.38 256.659 247.729C256.746 247.642 255.7 247.729 255.525 246.247Z" fill="#EEA886"/>
<path d="M257.097 245.637C257.097 245.637 257.097 246.247 257.01 246.422C256.923 246.596 258.231 246.945 258.231 246.945C258.231 246.945 257.882 245.637 257.097 245.637Z" fill="#CF8C6C"/>
<path d="M232.598 304.931L233.208 303.187L235.649 303.536L235.213 305.193L232.598 304.931Z" fill="#3B3F66"/>
<path d="M252.475 304.757L252.649 305.716L255.264 305.28L255.177 303.798L252.475 304.757Z" fill="#555C94"/>
<path d="M246.72 277.202C246.72 277.202 246.372 279.295 245.848 281.736C245.761 282.172 245.674 282.608 245.587 282.957C245.151 285.224 244.715 287.404 244.541 287.927C244.192 288.974 235.997 303.885 235.997 303.885C235.997 303.885 232.684 303.623 232.51 303.187C232.51 303.187 239.31 286.968 239.31 286.445C239.31 285.835 240.182 269.267 240.182 269.267C240.182 269.267 246.546 276.243 246.72 277.202Z" fill="#354C70"/>
<path d="M250.469 268.221C250.469 268.221 253.694 284.527 253.956 285.748C254.217 286.968 255.438 303.71 255.438 303.71C255.438 303.71 254.74 305.193 252.038 304.67C252.038 304.67 248.463 286.707 248.115 286.097C246.894 283.742 241.14 272.494 240.617 270.837C240.094 269.18 240.181 267.349 240.181 267.349C240.181 267.349 244.54 264.907 250.469 268.221Z" fill="#354C70"/>
<path d="M249.161 247.119C249.161 247.119 250.556 250.607 250.905 250.52C251.253 250.432 255.264 245.724 255.264 245.724C255.264 245.724 257.094 247.991 256.833 248.252C256.484 248.601 251.776 256.536 251.079 256.362C250.469 256.187 247.504 251.391 247.504 251.391C247.504 251.391 247.33 247.729 249.161 247.119Z" fill="#DEB135"/>
<path d="M243.147 240.492C243.147 240.492 246.809 243.282 247.768 244.329C248.727 245.462 251.517 249.997 251.342 251.392C250.558 256.624 250.209 261.158 250.209 264.733C250.209 267.872 251.168 268.657 250.558 268.657C249.86 268.744 240.706 271.97 239.398 272.406C239.398 272.406 240.27 261.419 240.706 260.111C241.142 258.804 239.311 245.549 243.147 240.492Z" fill="#F2C344"/>
<path d="M266.51 235.173L267.295 239.271L268.079 243.369C268.079 243.369 263.459 241.887 258.141 242.933L257.792 241.102L257.443 239.271C262.761 238.312 266.51 235.173 266.51 235.173Z" fill="#D9D0C4"/>
<path d="M252.648 305.716C252.648 305.716 254.653 305.367 254.741 305.28C254.828 305.193 255.264 304.408 255.525 304.582C255.874 304.757 255.874 305.716 256.136 305.89C256.397 306.065 258.838 307.634 259.1 307.983C259.361 308.245 261.192 308.07 261.454 308.593C261.628 309.117 261.715 310.337 259.013 309.989C256.31 309.727 253.259 310.163 252.648 309.814C252.038 309.465 252.474 306.501 252.648 305.716Z" fill="#84BDFF"/>
<path d="M232.597 304.931C232.597 304.931 234.603 304.844 234.69 304.844C234.777 304.757 235.3 304.059 235.562 304.234C235.823 304.408 235.736 305.367 235.997 305.542C236.259 305.716 238.351 307.722 238.613 308.07C238.874 308.419 240.705 308.506 240.792 309.029C240.88 309.553 240.705 310.773 238.09 310.076C235.474 309.378 232.336 309.291 231.813 308.855C231.377 308.506 232.249 305.629 232.597 304.931Z" fill="#84BDFF"/>
<path d="M248.463 269.006C248.463 269.006 248.725 269.965 249.074 270.226C249.422 270.401 247.243 272.581 247.243 272.581C247.243 272.581 246.371 270.575 246.371 270.401C246.371 270.139 248.463 269.006 248.463 269.006Z" fill="#EEA987"/>
<path d="M241.578 244.765C241.578 244.765 238.962 257.147 238.788 258.368C238.614 259.588 246.373 271.011 246.373 271.011L248.988 269.442C248.988 269.442 242.711 257.932 242.711 257.408C242.711 256.885 245.763 246.945 245.763 246.945C245.763 246.945 246.983 244.765 244.804 243.718C242.45 242.672 241.578 244.765 241.578 244.765Z" fill="#FFD255"/>
<path d="M249.946 269.79C249.946 269.79 250.818 273.976 250.731 275.284C250.643 276.592 245.848 273.278 246.11 271.97L249.946 269.79Z" fill="#3C5780"/>
<path d="M243.146 240.492C243.146 240.492 249.772 247.729 249.336 246.858C247.854 243.98 246.895 243.544 246.895 243.021C246.895 242.585 247.07 241.451 247.07 241.015C247.157 240.23 247.157 239.62 247.157 239.62C247.157 239.62 243.844 234.999 244.018 236.568C244.193 238.138 243.146 240.492 243.146 240.492Z" fill="#EEA886"/>
<path d="M249.423 231.946C249.423 231.946 250.295 234.039 250.382 234.562C250.382 235.085 250.295 235.434 250.382 236.045C250.47 236.655 250.993 237.876 250.906 238.225C250.818 238.661 249.947 238.399 249.859 239.096C249.772 239.794 249.075 241.102 248.813 241.102C248.029 241.189 244.89 239.881 244.628 239.271C244.454 238.573 243.321 234.998 242.972 234.301C242.623 233.603 248.464 229.766 248.988 230.9C249.423 231.946 249.423 231.946 249.423 231.946Z" fill="#EEA886"/>
<path d="M241.489 233.516C241.054 231.685 243.146 231.511 243.146 231.511C243.146 231.511 244.541 229.941 247.766 230.115C250.992 230.29 250.469 234.562 250.469 234.562C250.469 234.562 248.202 234.214 247.243 234.475C247.243 234.475 247.156 236.306 247.243 236.742L246.023 236.655C246.023 236.655 246.197 235.086 245.587 234.998C244.977 234.911 244.802 238.399 243.756 239.184C243.756 239.184 243.756 238.922 243.582 238.661C243.407 238.312 243.059 237.614 242.71 236.917C242.187 235.783 241.664 234.475 241.489 233.516Z" fill="#16202E"/>
<path d="M246.373 235.347C246.373 235.347 245.937 234.126 244.804 234.911C244.019 235.521 244.804 237.527 245.588 237.527C246.373 237.527 246.722 236.393 246.373 235.347Z" fill="#EEA886"/>
<path d="M244.367 238.661C244.367 238.661 244.542 239.271 244.716 239.445C244.89 239.62 245.675 240.23 247.157 240.753L247.07 242.061C246.983 242.061 244.193 241.015 244.367 238.661Z" fill="#C48A6F"/>
<path d="M256.136 242.759H256.049V247.642H256.136V242.759Z" fill="#96CBFF"/>
<path d="M256.224 242.759H256.137V247.642H256.224V242.759Z" fill="#95CAFF"/>
<path d="M256.312 242.759H256.225V247.642H256.312V242.759Z" fill="#94C9FF"/>
<path d="M256.312 242.759H256.225V247.642H256.312V242.759Z" fill="#93C9FF"/>
<path d="M256.4 242.759H256.312V247.642H256.4V242.759Z" fill="#92C8FF"/>
<path d="M256.4 242.759H256.312V247.642H256.4V242.759Z" fill="#91C7FF"/>
<path d="M256.488 242.759H256.4V247.642H256.488V242.759Z" fill="#90C6FF"/>
<path d="M256.488 242.759H256.4V247.642H256.488V242.759Z" fill="#8FC6FF"/>
<path d="M256.573 242.759H256.486V247.642H256.573V242.759Z" fill="#8EC5FF"/>
<path d="M256.661 242.759H256.574V247.642H256.661V242.759Z" fill="#8DC4FF"/>
<path d="M256.661 242.759H256.574V247.642H256.661V242.759Z" fill="#8CC3FF"/>
<path d="M256.747 242.759H256.66V247.642H256.747V242.759Z" fill="#8BC2FF"/>
<path d="M256.747 242.759H256.66V247.642H256.747V242.759Z" fill="#8AC2FF"/>
<path d="M256.835 242.759H256.748V247.642H256.835V242.759Z" fill="#89C1FF"/>
<path d="M256.925 242.759H256.838V247.642H256.925V242.759Z" fill="#88C0FF"/>
<path d="M256.925 242.759H256.838V247.642H256.925V242.759Z" fill="#87BFFF"/>
<path d="M257.009 242.759H256.922V247.642H257.009V242.759Z" fill="#86BFFF"/>
<path d="M257.009 242.759H256.922V247.642H257.009V242.759Z" fill="#85BEFF"/>
<path d="M257.095 242.759H257.008V247.642H257.095V242.759Z" fill="#84BDFF"/>
<path d="M257.095 242.759H257.008V247.642H257.095V242.759Z" fill="#83BCFF"/>
<path d="M257.185 242.759H257.098V247.642H257.185V242.759Z" fill="#82BBFF"/>
<path d="M257.273 242.759H257.186V247.642H257.273V242.759Z" fill="#81BBFF"/>
<path d="M257.273 242.759H257.186V247.642H257.273V242.759Z" fill="#80BAFF"/>
<path d="M257.357 242.759H257.27V247.642H257.357V242.759Z" fill="#7FB9FF"/>
<path d="M257.357 242.759H257.27V247.642H257.357V242.759Z" fill="#7EB8FF"/>
<path d="M257.445 242.759H257.357V247.642H257.445V242.759Z" fill="#7DB7FF"/>
<path d="M257.531 242.759H257.443V247.642H257.531V242.759Z" fill="#7CB7FF"/>
<path d="M257.531 242.759H257.443V247.642H257.531V242.759Z" fill="#7BB6FF"/>
<path d="M257.618 242.759H257.531V247.642H257.618V242.759Z" fill="#7AB5FF"/>
<path d="M257.618 242.759H257.531V247.642H257.618V242.759Z" fill="#79B4FF"/>
<path d="M257.708 242.759H257.621V247.642H257.708V242.759Z" fill="#78B4FF"/>
<path d="M257.708 242.759H257.621V247.642H257.708V242.759Z" fill="#77B3FF"/>
<path d="M257.792 242.759H257.705V247.642H257.792V242.759Z" fill="#76B2FF"/>
<path d="M257.88 242.759H257.793V247.642H257.88V242.759Z" fill="#74B1FF"/>
<path d="M257.88 242.759H257.793V247.642H257.88V242.759Z" fill="#73B0FF"/>
<path d="M257.968 242.759H257.881V247.642H257.968V242.759Z" fill="#72B0FF"/>
<path d="M257.968 242.759H257.881V247.642H257.968V242.759Z" fill="#71AFFF"/>
<path d="M258.056 242.759H257.969V247.642H258.056V242.759Z" fill="#70AEFF"/>
<path d="M258.142 242.759H258.055V247.642H258.142V242.759Z" fill="#6FADFF"/>
<path d="M258.142 242.759H258.055V247.642H258.142V242.759Z" fill="#6EADFF"/>
<path d="M258.23 242.759H258.143V247.642H258.23V242.759Z" fill="#6DACFF"/>
<path d="M258.23 242.759H258.143V247.642H258.23V242.759Z" fill="#6CABFF"/>
<path d="M258.318 242.759H258.23V247.642H258.318V242.759Z" fill="#6BAAFF"/>
<path d="M258.318 242.759H258.23V247.642H258.318V242.759Z" fill="#6AA9FF"/>
<path d="M258.404 242.759H258.316V247.642H258.404V242.759Z" fill="#69A9FF"/>
<path d="M258.493 242.759H258.406V247.642H258.493V242.759Z" fill="#68A8FF"/>
<path d="M258.493 242.759H258.406V247.642H258.493V242.759Z" fill="#67A7FF"/>
<path d="M258.579 242.759H258.492V247.642H258.579V242.759Z" fill="#66A6FF"/>
<path d="M258.579 242.759H258.492V247.642H258.579V242.759Z" fill="#65A6FF"/>
<path d="M258.667 242.759H258.58V247.642H258.667V242.759Z" fill="#64A5FF"/>
<path d="M258.667 242.759H258.58V247.642H258.667V242.759Z" fill="#63A4FF"/>
<path d="M258.753 242.759H258.666V247.642H258.753V242.759Z" fill="#62A3FF"/>
<path d="M258.841 242.759H258.754V247.642H258.841V242.759Z" fill="#61A2FF"/>
<path d="M258.841 242.759H258.754V247.642H258.841V242.759Z" fill="#60A2FF"/>
<path d="M258.929 242.759H258.842V247.642H258.929V242.759Z" fill="#5FA1FF"/>
<path d="M258.929 242.759H258.842V247.642H258.929V242.759Z" fill="#5EA0FF"/>
<path d="M259.015 242.759H258.928V247.642H259.015V242.759Z" fill="#5D9FFF"/>
<path d="M259.101 242.759H259.014V247.642H259.101V242.759Z" fill="#5C9EFF"/>
<path d="M259.101 242.759H259.014V247.642H259.101V242.759Z" fill="#5B9EFF"/>
<path d="M259.187 242.759H259.1V247.642H259.187V242.759Z" fill="#5A9DFF"/>
<path d="M259.187 242.759H259.1V247.642H259.187V242.759Z" fill="#599CFF"/>
<path d="M259.275 242.759H259.188V247.642H259.275V242.759Z" fill="#589BFF"/>
<path d="M259.275 242.759H259.188V247.642H259.275V242.759Z" fill="#579BFF"/>
<path d="M259.363 242.759H259.275V247.642H259.363V242.759Z" fill="#569AFF"/>
<path d="M259.449 242.759H259.361V247.642H259.449V242.759Z" fill="#5599FF"/>
<path d="M258.405 243.893C258.405 243.893 257.097 244.59 257.185 244.852C257.272 245.113 257.446 245.113 257.446 245.113L257.01 245.636C257.01 245.636 256.923 246.16 257.533 246.072C257.533 246.072 257.446 246.508 257.969 246.421C257.969 246.421 258.056 246.77 258.318 246.77C258.579 246.77 259.451 246.247 259.451 246.247C259.451 246.247 259.538 246.072 259.364 245.811C259.364 245.811 259.538 245.462 259.277 245.2C259.277 245.2 259.364 244.939 259.103 244.677C259.103 244.677 259.19 244.067 258.667 243.893C258.579 243.805 258.492 243.893 258.405 243.893Z" fill="#DB9C7C"/>
<path d="M253.868 239.097H253.781V243.806H253.868V239.097Z" fill="#96CBFF"/>
<path d="M253.956 239.097H253.869V243.806H253.956V239.097Z" fill="#95CAFF"/>
<path d="M254.042 239.097H253.955V243.806H254.042V239.097Z" fill="#94C9FF"/>
<path d="M254.13 239.097H254.043V243.806H254.13V239.097Z" fill="#93C9FF"/>
<path d="M254.218 239.097H254.131V243.806H254.218V239.097Z" fill="#92C8FF"/>
<path d="M254.304 239.097H254.217V243.806H254.304V239.097Z" fill="#91C7FF"/>
<path d="M254.392 239.097H254.305V243.806H254.392V239.097Z" fill="#90C6FF"/>
<path d="M254.478 239.097H254.391V243.806H254.478V239.097Z" fill="#8FC6FF"/>
<path d="M254.566 239.097H254.479V243.806H254.566V239.097Z" fill="#8EC5FF"/>
<path d="M254.654 239.097H254.566V243.806H254.654V239.097Z" fill="#8DC4FF"/>
<path d="M254.741 239.097H254.654V243.806H254.741V239.097Z" fill="#8CC3FF"/>
<path d="M254.827 239.097H254.74V243.806H254.827V239.097Z" fill="#8BC2FF"/>
<path d="M254.915 239.097H254.828V243.806H254.915V239.097Z" fill="#8AC2FF"/>
<path d="M255.003 239.097H254.916V243.806H255.003V239.097Z" fill="#89C1FF"/>
<path d="M255.089 239.097H255.002V243.806H255.089V239.097Z" fill="#88C0FF"/>
<path d="M255.179 239.097H255.092V243.806H255.179V239.097Z" fill="#87BFFF"/>
<path d="M255.179 239.097H255.092V243.806H255.179V239.097Z" fill="#86BFFF"/>
<path d="M255.263 239.097H255.176V243.806H255.263V239.097Z" fill="#85BEFF"/>
<path d="M255.353 239.097H255.266V243.806H255.353V239.097Z" fill="#84BDFF"/>
<path d="M255.437 239.097H255.35V243.806H255.437V239.097Z" fill="#83BCFF"/>
<path d="M255.527 239.097H255.439V243.806H255.527V239.097Z" fill="#82BBFF"/>
<path d="M255.615 239.097H255.527V243.806H255.615V239.097Z" fill="#81BBFF"/>
<path d="M255.699 239.097H255.611V243.806H255.699V239.097Z" fill="#80BAFF"/>
<path d="M255.786 239.097H255.699V243.806H255.786V239.097Z" fill="#7FB9FF"/>
<path d="M255.872 239.097H255.785V243.806H255.872V239.097Z" fill="#7EB8FF"/>
<path d="M255.96 239.097H255.873V243.806H255.96V239.097Z" fill="#7DB7FF"/>
<path d="M256.048 239.097H255.961V243.806H256.048V239.097Z" fill="#7CB7FF"/>
<path d="M256.134 239.097H256.047V243.806H256.134V239.097Z" fill="#7BB6FF"/>
<path d="M256.222 239.097H256.135V243.806H256.222V239.097Z" fill="#7AB5FF"/>
<path d="M256.31 239.097H256.223V243.806H256.31V239.097Z" fill="#79B4FF"/>
<path d="M256.398 239.097H256.311V243.806H256.398V239.097Z" fill="#78B4FF"/>
<path d="M256.484 239.097H256.396V243.806H256.484V239.097Z" fill="#77B3FF"/>
<path d="M256.572 239.097H256.484V243.806H256.572V239.097Z" fill="#76B2FF"/>
<path d="M256.659 239.097H256.572V243.806H256.659V239.097Z" fill="#74B1FF"/>
<path d="M256.745 239.097H256.658V243.806H256.745V239.097Z" fill="#73B0FF"/>
<path d="M256.745 239.097H256.658V243.806H256.745V239.097Z" fill="#72B0FF"/>
<path d="M256.835 239.097H256.748V243.806H256.835V239.097Z" fill="#71AFFF"/>
<path d="M256.921 239.097H256.834V243.806H256.921V239.097Z" fill="#70AEFF"/>
<path d="M257.009 239.097H256.922V243.806H257.009V239.097Z" fill="#6FADFF"/>
<path d="M257.095 239.097H257.008V243.806H257.095V239.097Z" fill="#6EADFF"/>
<path d="M257.183 239.097H257.096V243.806H257.183V239.097Z" fill="#6DACFF"/>
<path d="M257.271 239.097H257.184V243.806H257.271V239.097Z" fill="#6CABFF"/>
<path d="M257.355 239.097H257.268V243.806H257.355V239.097Z" fill="#6BAAFF"/>
<path d="M257.443 239.097H257.355V243.806H257.443V239.097Z" fill="#6AA9FF"/>
<path d="M257.529 239.097H257.441V243.806H257.529V239.097Z" fill="#69A9FF"/>
<path d="M257.617 239.097H257.529V243.806H257.617V239.097Z" fill="#68A8FF"/>
<path d="M257.704 239.097H257.617V243.806H257.704V239.097Z" fill="#67A7FF"/>
<path d="M257.79 239.097H257.703V243.806H257.79V239.097Z" fill="#66A6FF"/>
<path d="M257.878 239.097H257.791V243.806H257.878V239.097Z" fill="#65A6FF"/>
<path d="M257.966 239.097H257.879V243.806H257.966V239.097Z" fill="#64A5FF"/>
<path d="M258.054 239.097H257.967V243.806H258.054V239.097Z" fill="#63A4FF"/>
<path d="M258.14 239.097H258.053V243.806H258.14V239.097Z" fill="#62A3FF"/>
<path d="M258.228 239.097H258.141V243.806H258.228V239.097Z" fill="#61A2FF"/>
<path d="M258.316 239.097H258.229V243.806H258.316V239.097Z" fill="#60A2FF"/>
<path d="M258.402 239.097H258.314V243.806H258.402V239.097Z" fill="#5FA1FF"/>
<path d="M258.402 239.097H258.314V243.806H258.402V239.097Z" fill="#5EA0FF"/>
<path d="M258.492 239.097H258.404V243.806H258.492V239.097Z" fill="#5D9FFF"/>
<path d="M258.577 239.097H258.49V243.806H258.577V239.097Z" fill="#5C9EFF"/>
<path d="M258.665 239.097H258.578V243.806H258.665V239.097Z" fill="#5B9EFF"/>
<path d="M258.753 239.097H258.666V243.806H258.753V239.097Z" fill="#5A9DFF"/>
<path d="M258.839 239.097H258.752V243.806H258.839V239.097Z" fill="#599CFF"/>
<path d="M258.927 239.097H258.84V243.806H258.927V239.097Z" fill="#589BFF"/>
<path d="M259.013 239.097H258.926V243.806H259.013V239.097Z" fill="#579BFF"/>
<path d="M259.099 239.097H259.012V243.806H259.099V239.097Z" fill="#569AFF"/>
<path d="M259.185 239.097H259.098V243.806H259.185V239.097Z" fill="#5599FF"/>
<path d="M256.048 244.852C256.048 244.852 257.095 244.852 257.618 245.026C257.705 245.113 257.879 245.113 257.879 245.288C257.879 245.462 257.705 245.637 257.269 245.637C256.833 245.637 256.223 245.898 256.223 245.898C256.223 245.898 255.787 245.898 256.048 244.852Z" fill="#EEA886"/>
<path d="M245.938 281.737C245.85 282.173 245.763 282.609 245.676 282.957L243.061 275.981C243.409 276.679 245.938 281.737 245.938 281.737Z" fill="#293B57"/>
<path d="M100.521 198.375H58.7612C55.7099 198.375 53.1816 195.847 53.1816 192.795V126.96C53.1816 123.908 55.7099 121.38 58.7612 121.38H100.434C103.485 121.38 106.013 123.908 106.013 126.96V192.795C106.101 195.847 103.572 198.375 100.521 198.375Z" fill="#FFC955"/>
<path d="M100.431 171.083H97.7285V191.923H100.431V171.083Z" fill="#E3F2FF"/>
<path d="M95.0249 173.437H92.3223V191.923H95.0249V173.437Z" fill="#E3F2FF"/>
<path d="M89.0991 176.402H86.3965V191.836H89.0991V176.402Z" fill="#E3F2FF"/>
<path d="M83.0815 180.238H80.3789V191.835H83.0815V180.238Z" fill="#E3F2FF"/>
<path d="M64.0771 177.797L63.4668 177.622L68.6105 163.06L79.8569 160.095L83.8672 144.225L92.4981 140.389L94.4161 128.094L95.0264 128.181L93.0212 140.825L84.3903 144.661L80.3799 160.619L69.1336 163.583L64.0771 177.797Z" fill="#E3F2FF"/>
<path d="M81.4241 159.311C82.0344 160.008 81.9472 161.055 81.1626 161.665C80.4651 162.276 79.419 162.188 78.8087 161.404C78.1984 160.706 78.2856 159.66 79.0702 159.049C79.7677 158.526 80.8139 158.613 81.4241 159.311Z" fill="#FFC955"/>
<path d="M81.3407 161.927C80.4689 162.624 79.2484 162.537 78.5509 161.665C77.8535 160.793 77.9406 159.572 78.8124 158.875C79.6843 158.177 80.9048 158.264 81.6022 159.136C82.2997 160.008 82.2125 161.229 81.3407 161.927ZM79.2484 159.311C78.6381 159.747 78.5509 160.619 79.074 161.229C79.5099 161.839 80.3817 161.927 80.992 161.403C81.6022 160.967 81.6894 160.095 81.1663 159.485C80.6433 158.962 79.7714 158.875 79.2484 159.311Z" fill="#E3F2FF"/>
<path d="M85.4358 143.528C86.0461 144.225 85.9589 145.272 85.1743 145.882C84.4768 146.493 83.4307 146.405 82.8204 145.621C82.2101 144.923 82.2973 143.877 83.082 143.266C83.7794 142.656 84.9128 142.743 85.4358 143.528Z" fill="#FFC955"/>
<path d="M85.4345 146.144C84.5626 146.841 83.3421 146.754 82.6447 145.882C81.9472 145.01 82.0344 143.789 82.9062 143.092C83.778 142.394 84.9985 142.481 85.696 143.353C86.3934 144.138 86.3063 145.446 85.4345 146.144ZM83.2549 143.528C82.6447 143.964 82.5575 144.836 83.0806 145.446C83.5165 146.056 84.3883 146.144 84.9985 145.621C85.6088 145.185 85.696 144.313 85.1729 143.702C84.737 143.092 83.8652 143.005 83.2549 143.528Z" fill="#E3F2FF"/>
<path d="M93.9788 139.604C94.5891 140.301 94.5019 141.348 93.7173 141.958C93.0198 142.569 91.9736 142.481 91.3634 141.697C90.7531 140.999 90.8403 139.953 91.6249 139.342C92.3224 138.732 93.3685 138.819 93.9788 139.604Z" fill="#FFC955"/>
<path d="M93.8915 142.22C93.0197 142.917 91.7991 142.83 91.1017 141.958C90.4042 141.086 90.4914 139.866 91.3632 139.168C92.235 138.47 93.4556 138.558 94.153 139.43C94.9377 140.214 94.7633 141.522 93.8915 142.22ZM91.7991 139.604C91.1889 140.04 91.1017 140.912 91.6248 141.522C92.0607 142.133 92.9325 142.22 93.5428 141.697C94.153 141.261 94.2402 140.389 93.7171 139.778C93.2812 139.168 92.4094 139.081 91.7991 139.604Z" fill="#E3F2FF"/>
<path d="M70.2679 162.45C70.8781 163.148 70.791 164.194 70.0063 164.804C69.3089 165.415 68.2627 165.327 67.6524 164.543C67.0422 163.845 67.1294 162.799 67.914 162.188C68.6114 161.578 69.6576 161.752 70.2679 162.45Z" fill="#FFC955"/>
<path d="M70.1805 165.066C69.3087 165.763 68.0882 165.676 67.3907 164.804C66.6933 163.932 66.7805 162.711 67.6523 162.014C68.5241 161.316 69.7446 161.403 70.4421 162.275C71.1395 163.06 71.0524 164.368 70.1805 165.066ZM68.0882 162.45C67.4779 162.886 67.3907 163.758 67.9138 164.368C68.3497 164.978 69.2216 165.066 69.8318 164.542C70.4421 164.106 70.5293 163.234 70.0062 162.624C69.4831 162.014 68.6113 162.014 68.0882 162.45Z" fill="#E3F2FF"/>
<path d="M74.4511 146.667H60.0662C59.3688 146.667 58.8457 146.144 58.8457 145.446V144.4C58.8457 143.702 59.3688 143.179 60.0662 143.179H74.4511C75.1486 143.179 75.6717 143.702 75.6717 144.4V145.446C75.6717 146.144 75.1486 146.667 74.4511 146.667Z" fill="#EBEBEB"/>
<path d="M74.4511 140.563H60.0662C59.3688 140.563 58.8457 140.04 58.8457 139.342V138.296C58.8457 137.598 59.3688 137.075 60.0662 137.075H74.4511C75.1486 137.075 75.6717 137.598 75.6717 138.296V139.342C75.6717 140.04 75.1486 140.563 74.4511 140.563Z" fill="#EBEBEB"/>
<path d="M46.7295 149.457C46.7295 149.457 46.2064 154.253 47.1654 155.474C47.1654 155.474 44.8115 154.951 44.2885 154.166C43.7654 153.381 46.7295 149.457 46.7295 149.457Z" fill="#16202E"/>
<path d="M61.4649 164.804C61.4649 164.804 62.3367 164.194 62.4239 164.107C62.5982 164.019 63.0341 164.019 63.47 164.107C63.9931 164.194 64.6034 164.455 64.6906 164.543C64.6906 164.63 64.7778 164.717 64.7778 164.891C64.7778 165.153 64.6034 165.24 64.6034 165.24C64.6034 165.24 64.6906 165.502 64.5162 165.763C64.5162 165.763 64.6034 166.025 64.3419 166.199C64.3419 166.199 64.429 166.461 64.1675 166.548C64.1675 166.548 63.7316 166.548 63.5572 166.548C63.3829 166.548 62.511 166.461 61.6392 166.287C61.6392 166.461 60.6802 166.287 61.4649 164.804Z" fill="#EEA886"/>
<path d="M62.9454 165.24C62.9454 165.24 62.6838 165.676 62.5094 165.763C62.335 165.85 63.207 166.722 63.207 166.722C63.207 166.722 63.4686 165.589 62.9454 165.24Z" fill="#CF8C6C"/>
<path d="M60.9391 164.891C60.9391 164.891 61.4622 164.804 61.8109 164.717C62.1596 164.543 61.7237 166.374 61.7237 166.374C61.7237 166.374 60.9391 165.851 60.416 165.763C59.8929 165.763 60.9391 164.891 60.9391 164.891Z" fill="#EEA886"/>
<path d="M38.7104 213.548C38.7104 213.548 40.3668 215.989 40.9771 216.512C40.9771 216.512 42.1104 217.123 42.1976 217.646C42.2848 218.605 42.2848 219.128 40.8027 219.128C39.2335 219.128 38.2745 219.128 38.0129 218.169C37.7514 217.21 37.2283 216.512 37.2283 216.512L37.1411 218.954H36.7924C36.7924 218.954 36.618 216.512 36.618 216.164C36.618 215.815 36.3565 214.507 37.1411 213.896C37.7514 213.286 38.7104 213.548 38.7104 213.548Z" fill="#162D40"/>
<path d="M41.1501 216.687C41.1501 216.687 40.2783 216.948 39.3193 216.687C38.3603 216.425 37.4013 214.071 37.0526 213.896L36.791 212.937H38.709C38.709 212.937 38.709 213.635 39.0577 214.245C39.4065 214.768 41.1501 216.687 41.1501 216.687Z" fill="#162D40"/>
<path d="M49.6076 212.589C49.6076 212.589 49.8692 213.199 50.3051 213.809C50.6538 214.245 51.7 216.164 52.2231 216.251C52.659 216.338 54.1411 216.6 54.3154 217.472C54.4026 218.257 54.4898 218.867 53.0949 218.954C51.6128 219.041 50.6538 219.129 49.9564 218.082C49.2589 217.036 48.1256 216.338 48.1256 216.338V219.041H47.6025C47.6025 219.041 47.3409 216.251 47.1666 216.077C46.9922 215.902 46.6435 213.722 47.9512 212.676C49.3461 211.542 49.6076 212.589 49.6076 212.589Z" fill="#162D40"/>
<path d="M52.2222 216.338C52.2222 216.338 50.9145 216.687 50.3914 216.338C49.8683 215.989 48.2118 213.112 47.6016 212.937C47.6016 212.937 48.1247 211.804 49.5196 212.676C49.6067 212.589 51.8734 215.815 52.2222 216.338Z" fill="#162D40"/>
<path d="M37.926 172.739C37.926 172.739 36.0952 175.094 35.5721 177.971C35.049 180.761 35.8336 190.353 35.8336 191.748C35.8336 193.144 34.6131 197.503 34.8746 200.119C35.1362 202.735 36.5311 213.722 36.5311 213.722L39.6696 213.635C39.6696 213.635 39.0593 201.776 39.2337 200.643C39.4081 199.509 39.9311 194.8 40.0183 194.364C40.1055 193.928 43.6799 181.895 43.6799 179.802C43.5928 177.884 42.3722 169.426 37.926 172.739Z" fill="#1D3B54"/>
<path d="M47.1664 173.698C47.1664 173.698 50.2178 185.208 50.5665 186.778C50.9152 188.348 51.6127 190.44 51.6127 190.789C51.6127 191.051 51.2639 196.021 51.2639 196.021L50.3921 212.763H47.2536C47.2536 212.763 46.2074 202.125 46.0331 199.945C45.8587 197.765 47.1664 194.451 46.9049 193.579C46.5561 192.708 41.674 182.157 41.674 182.157C41.674 182.157 37.9252 170.385 47.1664 173.698Z" fill="#1D3B54"/>
<path d="M46.2077 156.433C46.2077 156.433 47.4283 156.52 48.3001 157.567C49.1719 158.526 50.0437 160.095 50.3052 160.619C50.5668 161.142 53.8797 165.938 54.054 166.112C54.2284 166.199 55.7105 165.85 56.8438 165.763C58.7618 165.589 61.6388 164.63 61.6388 164.63L62.0747 166.81C62.0747 166.81 55.013 169.077 53.4438 168.641C51.4386 168.118 46.9052 162.275 46.9052 162.275C46.9052 162.275 43.5051 158.264 46.2077 156.433Z" fill="#EDDAD3"/>
<path d="M44.1162 155.648C44.1162 155.648 45.6855 156.346 46.2085 156.52C46.7316 156.608 48.824 159.398 49.2599 160.357C49.6086 161.316 49.2599 162.886 48.4753 164.63C47.6906 166.374 48.4753 166.984 48.1265 168.728C47.7778 170.472 47.7778 175.268 47.865 176.227C47.9522 177.186 37.8392 179.017 35.834 177.273C35.834 177.273 37.2289 172.739 38.7981 171.082C39.1469 170.734 39.1469 168.292 38.8853 167.682C38.6238 167.071 35.9212 162.537 35.9212 162.537C35.9212 162.537 35.7468 157.915 36.8802 157.044C37.9263 156.259 40.7161 155.997 41.152 155.823C41.6751 155.561 43.1572 155.474 44.1162 155.648Z" fill="#EDDAD3"/>
<path d="M44.6387 159.136L45.5977 158.003L44.813 155.038C44.813 155.038 44.4643 156.695 44.6387 159.136Z" fill="#D1C0BA"/>
<path d="M38.7095 156.433C38.7095 156.433 36.7043 155.91 35.571 158.003C34.4376 160.183 34.6992 161.316 34.4376 162.363C34.1761 163.322 33.1299 169.862 33.0427 170.123C32.9555 170.385 31.9965 173.698 32.0837 174.745C32.1709 175.791 33.1299 183.464 33.1299 183.726C33.1299 183.988 34.9607 183.464 34.9607 183.464C34.9607 183.464 34.8735 175.617 34.9607 174.919C35.0479 174.309 35.0479 170.821 35.571 169.949C36.0941 169.077 37.2274 163.671 37.489 163.147C37.8377 162.711 40.3659 157.131 38.7095 156.433Z" fill="#EEA886"/>
<path d="M44.8992 153.817C44.8992 153.817 44.5505 156.695 44.6376 157.654C44.6376 157.654 42.9812 159.311 41.1504 155.736C41.1504 155.736 41.935 154.253 41.3248 152.335C40.8017 150.329 44.8992 153.817 44.8992 153.817Z" fill="#EEA886"/>
<path d="M44.6382 157.654V159.136L42.8945 157.567L44.6382 157.654Z" fill="#EEA886"/>
<path d="M44.6364 159.136L43.8518 158.177L41.2363 155.561L40.2773 155.997L44.6364 159.136Z" fill="#D1C0BA"/>
<path d="M45.5952 158.003L46.8157 158.351L44.8105 155.038L45.5952 158.003Z" fill="#FAE6DE"/>
<path d="M43.8518 158.177L42.8056 159.921L40.2773 155.91L41.3235 155.387L43.8518 158.177Z" fill="#FAE6DE"/>
<path d="M49.4311 165.24C49.4311 165.24 49.7798 162.624 49.4311 161.055C49.4311 161.055 49.1696 162.363 48.6465 164.281L49.4311 165.24Z" fill="#D1C0BA"/>
<path d="M37.3145 164.891C37.3145 164.891 38.3606 161.316 38.4478 161.142C38.4478 161.142 38.3606 164.455 37.9247 166.025C37.9247 166.025 37.576 165.327 37.3145 164.891Z" fill="#D1C0BA"/>
<path d="M77.5062 146.928L60.5059 168.379L61.1161 168.815L77.5062 146.928Z" fill="#54281A"/>
<path d="M64.6027 164.63C64.6027 164.63 63.295 164.542 63.295 164.717C63.2078 164.891 63.3821 164.978 63.3821 164.978L62.8591 165.153C62.8591 165.153 62.5975 165.502 63.0334 165.676C63.0334 165.676 62.7719 165.938 63.2078 166.112C63.2078 166.112 63.1206 166.374 63.295 166.461C63.4693 166.548 64.3411 166.635 64.3411 166.635C64.3411 166.635 64.5155 166.548 64.5155 166.286C64.5155 166.286 64.777 166.112 64.6899 165.85C64.6899 165.85 64.8642 165.676 64.7771 165.327C64.7771 165.327 65.213 164.891 64.8642 164.542C64.6899 164.63 64.6027 164.63 64.6027 164.63Z" fill="#DB9C7C"/>
<path d="M62.5101 164.194C62.5101 164.194 63.2948 164.63 63.5563 165.066C63.6435 165.153 63.6435 165.24 63.6435 165.327C63.5563 165.415 63.3819 165.415 63.0332 165.24C62.6845 165.066 62.1614 164.979 62.1614 164.979C62.1614 164.979 61.8127 164.717 62.5101 164.194Z" fill="#EEA886"/>
<path d="M43.5922 144.051C43.5922 144.051 46.4692 143.964 46.9923 147.365C47.5154 150.765 46.2948 153.73 45.8589 154.253C45.3358 154.776 42.546 154.34 41.8486 152.596C41.1511 150.852 40.1921 149.544 40.3665 147.975C40.3665 146.493 40.0178 143.964 43.5922 144.051Z" fill="#EEA886"/>
<path d="M47.0794 148.672C47.0794 148.672 47.864 144.4 44.028 143.702C40.1921 142.917 38.8843 145.533 38.5356 147.103C38.1869 148.672 38.6228 153.032 38.6228 153.032C38.6228 153.032 41.151 155.299 42.7203 155.823C42.7203 155.823 41.4126 151.201 41.9357 147.8C41.9357 147.8 45.0742 148.324 47.0794 147.8C47.0794 147.8 47.0794 148.498 47.0794 148.672Z" fill="#16202E"/>
<path d="M44.8129 154.428C44.8129 154.428 43.8539 154.428 42.459 153.556C42.459 153.556 43.418 154.776 44.7257 155.212C44.7257 155.212 44.8129 154.602 44.8129 154.428Z" fill="#A77860"/>
<path d="M39.1089 176.422L28.0098 178.235L29.3452 186.41L40.4443 184.597L39.1089 176.422Z" fill="#366E9C"/>
<path d="M32.7801 186.255C32.7801 186.255 32.6057 185.993 32.6057 185.819C32.6057 185.819 32.6057 185.557 32.6057 185.296C32.6057 185.208 32.6057 185.208 32.6057 185.121C32.6057 184.947 32.4314 184.598 32.5186 184.249C32.5186 183.813 33.0416 182.157 33.0416 182.157H34.0006L34.9596 182.069C34.9596 182.069 36.093 184.162 36.093 184.598V184.685C36.093 185.034 35.9186 185.208 35.9186 185.383C35.9186 185.47 35.7443 185.993 35.5699 186.08C35.3084 186.168 35.134 186.168 34.9596 186.08C34.9596 186.08 34.5237 186.255 34.175 186.168C34.175 186.168 33.7391 186.342 33.3904 186.168C33.4775 186.342 33.0416 186.516 32.7801 186.255Z" fill="#EEA886"/>
<path d="M38.7085 156.433C38.7085 156.433 36.7033 155.91 35.57 158.003C34.4366 160.183 34.4366 161.142 34.2623 162.188C34.0879 163.147 32.7802 169.164 32.693 169.426C32.6058 169.687 32.1699 173.437 32.1699 174.745C32.1699 175.791 32.3443 182.505 32.3443 182.767C32.3443 183.028 35.4828 182.331 35.4828 182.331C35.4828 182.331 35.1341 176.14 35.2213 175.442C35.3084 174.832 35.3956 171.518 35.7443 170.559C36.0931 169.426 37.5752 163.758 37.8367 163.235C38.0982 162.799 40.365 157.131 38.7085 156.433Z" fill="#EDDAD3"/>
<path d="M140.448 214.943L140.622 213.025C140.622 213.025 137.92 213.025 137.658 213.199C137.658 213.199 137.92 214.769 137.92 215.03C138.007 215.292 140.448 214.943 140.448 214.943Z" fill="#5C544D"/>
<path d="M135.915 218.867C139.141 218.867 140.623 219.042 140.972 218.518C141.321 217.995 140.449 214.682 140.449 214.682C140.449 214.682 139.664 214.943 137.833 214.769C137.833 214.769 137.049 215.728 136.264 216.164C135.48 216.6 134.259 216.774 133.823 217.21C133.562 217.559 132.69 218.954 135.915 218.867Z" fill="#3C4145"/>
<path d="M122.491 214.943L122.665 213.025C122.665 213.025 119.963 213.025 119.701 213.199C119.701 213.199 119.963 214.769 119.963 215.03C119.963 215.292 122.491 214.943 122.491 214.943Z" fill="#5C544D"/>
<path d="M117.87 218.867C121.096 218.78 122.578 219.042 122.926 218.518C123.275 217.995 122.403 214.682 122.403 214.682C122.403 214.682 121.706 214.943 119.788 214.769C119.788 214.769 119.003 215.728 118.219 216.164C117.434 216.6 114.644 216.949 114.121 217.385C113.947 217.734 113.424 219.042 117.87 218.867Z" fill="#3C4145"/>
<path d="M136.786 171.867C136.786 171.867 138.094 175.878 137.919 179.279C137.745 182.68 138.617 186.429 138.965 190.004C139.401 194.015 140.971 203.433 141.058 205.613C141.145 207.706 140.796 214.594 140.796 214.594L137.57 214.681C137.57 214.681 134.868 198.201 134.17 196.457C133.473 194.8 129.986 182.767 129.811 181.372C129.724 179.977 136.786 171.867 136.786 171.867Z" fill="#DBD8E3"/>
<path d="M123.189 172.565C123.189 172.565 121.445 181.982 121.184 184.075C120.922 186.168 120.835 194.19 120.661 195.498C120.573 196.806 119.876 212.676 119.266 214.594H123.45C123.45 214.594 126.589 203.084 126.589 197.591C126.589 192.097 129.03 185.732 130.599 182.157C132.168 178.581 135.83 178.494 136.789 171.78C136.789 171.867 124.496 170.385 123.189 172.565Z" fill="#DBD8E3"/>
<path d="M131.556 140.389C131.556 140.389 128.33 139.168 126.761 141.697C125.279 144.226 125.366 149.196 127.022 149.806C128.679 150.417 131.12 150.068 131.992 148.585C132.863 147.016 133.561 144.749 133.561 143.266C133.561 141.697 132.428 140.825 131.556 140.389Z" fill="#EEA886"/>
<path d="M127.633 149.632C127.633 149.632 127.808 150.504 127.546 150.94C127.372 151.376 131.644 151.376 131.644 151.376C131.644 151.376 131.992 149.109 132.69 147.103C133.387 145.185 127.633 149.632 127.633 149.632Z" fill="#EEA886"/>
<path d="M132.689 147.103C132.689 147.103 132.428 147.626 131.207 147.365C129.987 147.19 128.505 145.533 127.982 145.359C127.458 145.185 127.458 144.923 127.458 144.923L127.11 145.359H126.587C126.587 145.359 127.11 143.877 126.325 143.354C125.54 142.743 127.11 138.645 131.033 140.04C131.033 140.04 133.823 140.563 133.997 142.307C134.171 144.138 133.387 146.231 132.689 147.103Z" fill="#FCCCA2"/>
<path d="M127.283 150.852C127.283 150.852 127.283 150.068 127.632 149.98C127.981 149.893 131.642 149.544 132.078 149.719V150.678C132.165 150.678 131.294 151.201 127.283 150.852Z" fill="#E2D2CA"/>
<path d="M127.546 144.313C127.634 144.051 128.331 143.179 128.593 144.051C128.854 144.923 128.157 146.144 127.808 145.969C127.372 145.969 127.372 145.01 127.546 144.313Z" fill="#EEA886"/>
<path d="M127.285 150.852C127.285 150.852 125.28 151.55 122.926 152.596C122.926 152.596 120.223 153.556 119.962 156.52C119.787 158.09 118.131 166.461 117.782 167.158C117.433 167.856 113.772 179.192 113.597 179.453C113.51 179.715 116.649 181.023 116.823 180.936C116.998 180.849 120.398 170.559 120.746 169.862C120.746 169.862 122.664 163.758 122.752 162.799C122.752 162.799 122.839 165.414 122.926 166.112C123.013 166.81 121.182 181.023 121.269 181.459C121.357 181.895 129.639 182.331 132.952 181.982C136.265 181.633 138.967 180.849 138.967 180.849C138.967 180.849 136.352 169.6 136.439 168.379C136.613 165.676 137.485 160.531 137.485 160.531L140.188 165.589L136.701 174.483L137.485 177.186C137.485 177.186 143.937 167.42 144.111 166.548C144.285 165.676 143.762 164.542 143.413 163.758C143.065 163.06 140.885 157.479 140.362 156.695C139.839 155.91 138.967 152.771 136.788 151.899C135.044 151.201 131.993 150.591 131.993 150.591L127.285 150.852Z" fill="#63A4FF"/>
<path d="M125.517 173.975L110.4 170.098L107.693 180.657L122.81 184.534L125.517 173.975Z" fill="#F25F54"/>
<path d="M112.376 181.721C112.376 181.721 111.94 182.418 111.765 182.593C111.591 182.767 112.114 182.941 112.376 182.68C112.637 182.505 112.376 181.721 112.376 181.721Z" fill="#C98462"/>
<path d="M115.516 184.075C115.516 184.075 115.777 183.813 115.865 183.639C115.865 183.639 115.952 183.29 116.039 183.116C116.039 183.029 116.039 182.941 116.126 182.941C116.213 182.767 116.388 182.418 116.475 181.982C116.562 181.546 116.736 179.628 116.736 179.628L115.603 179.366L114.644 179.192C114.644 179.192 112.639 181.197 112.465 181.633V181.721C112.377 182.069 112.465 182.331 112.465 182.505C112.465 182.593 112.465 183.29 112.639 183.377C112.813 183.552 113.075 183.552 113.249 183.552C113.249 183.552 113.685 183.901 114.034 183.813C114.034 183.813 114.47 184.162 114.906 183.988C114.818 183.988 115.254 184.249 115.516 184.075Z" fill="#DE9D7D"/>
<path d="M120.133 171.867C120.133 171.867 117.43 179.977 116.907 180.849C116.907 180.849 114.902 180.413 113.682 179.366L116.646 170.559L120.133 171.867Z" fill="#63A4FF"/>
<path d="M362.849 184.598C362.849 184.598 372.875 155.299 353.782 146.231C334.69 137.162 318.561 150.242 315.51 157.392C312.459 164.455 313.243 177.448 315.859 186.429C318.474 195.41 318.125 209.188 312.459 213.722C306.792 218.344 299.73 225.93 300.079 241.451C300.253 251.043 337.915 216.861 337.915 216.861L362.849 184.598Z" fill="#252E3B"/>
<path d="M335.997 219.39C335.997 219.39 320.304 222.878 314.114 226.54C307.924 230.202 294.062 246.857 294.062 254.095C294.062 261.245 354.479 267.959 354.479 267.959L365.9 309.727C365.9 309.727 396.413 302.315 400.075 296.124C403.736 289.933 388.48 245.637 385.864 236.742C383.249 227.587 372.264 221.221 359.536 219.477C346.894 217.646 335.997 219.39 335.997 219.39Z" fill="#FFD255"/>
<path d="M358.49 219.216C358.49 219.216 358.141 238.225 343.059 238.835C327.976 239.358 331.115 220.611 331.115 220.611C331.115 220.611 342.187 216.164 358.49 219.216Z" fill="#EEA886"/>
<path d="M364.941 161.839C364.941 161.839 370.259 192.446 355.089 214.594C339.309 237.44 364.941 161.839 364.941 161.839Z" fill="#252E3B"/>
<path d="M355.263 205.787C355.263 205.787 354.217 214.856 355.96 220.524C357.704 226.191 332.857 226.366 332.857 221.657C332.857 216.338 335.386 211.978 333.032 202.91C330.678 193.841 355.263 205.787 355.263 205.787Z" fill="#EEA886"/>
<path d="M335.998 206.921C335.998 206.921 343.844 215.117 353.87 207.793C353.87 207.793 352.998 213.025 345.85 213.722C338.613 214.42 335.998 206.921 335.998 206.921Z" fill="#A77860"/>
<path d="M345.849 151.201C345.849 151.201 365.639 157.044 362.85 184.598C360.06 212.065 347.07 210.67 345.849 210.932C344.629 211.106 329.285 212.153 324.403 178.756C319.52 145.272 345.849 151.201 345.849 151.201Z" fill="#EEA886"/>
<path d="M340.705 163.409C340.705 163.409 351.515 180.587 362.849 184.511C362.849 184.511 369.039 155.735 343.494 149.719C317.95 143.702 321.961 178.756 323.879 188.086C323.792 188.173 329.11 174.396 340.705 163.409Z" fill="#252E3B"/>
<path d="M326.232 160.88C326.232 160.88 331.899 149.893 341.489 149.37C351.079 148.847 356.746 157.218 356.746 157.218C356.746 157.218 352.997 147.887 341.489 147.887C329.981 147.887 326.232 160.88 326.232 160.88Z" fill="#88C0FF"/>
<path d="M365.201 247.206L371.914 309.727H283.512L276.799 247.206H365.201Z" fill="#5FA0FF"/>
<path d="M369.824 307.547H280.55L273.75 244.242H363.024L369.824 307.547ZM281.248 306.85H368.952L362.326 245.114H274.622L281.248 306.85Z" fill="#5FA0FF"/>
<path d="M329.892 277.464C330.677 281.388 328.846 285.05 325.882 285.66C322.83 286.271 319.779 283.655 318.994 279.731C318.21 275.807 320.041 272.145 323.005 271.534C325.969 270.924 329.02 273.54 329.892 277.464Z" fill="#5189DB"/>
<path d="M363.583 309.732H380.061V303.454H363.583V309.732Z" fill="#5FA0FF"/>
<path d="M312.284 122.077C304.786 122.077 298.684 115.973 298.684 108.474C298.684 100.975 304.786 94.8713 312.284 94.8713C319.781 94.8713 325.884 100.975 325.884 108.474C325.884 115.973 319.781 122.077 312.284 122.077ZM312.284 95.6561C305.222 95.6561 299.468 101.411 299.468 108.474C299.468 115.537 305.222 121.292 312.284 121.292C319.346 121.292 325.099 115.537 325.099 108.474C325.099 101.411 319.346 95.6561 312.284 95.6561Z" fill="#64A4FF"/>
<path d="M72.2732 260.46V259.327C74.5399 259.327 76.8938 259.24 79.1605 259.152L79.2477 260.286C76.8938 260.373 74.5399 260.46 72.2732 260.46ZM65.2987 260.373C63.032 260.286 60.6781 260.199 58.3242 260.024L58.4114 258.891C60.7653 259.065 63.032 259.152 65.2987 259.24V260.373ZM86.135 259.85L86.0478 258.716C88.3146 258.542 90.6684 258.28 92.9352 258.019L93.1095 259.152C90.7556 259.327 88.4017 259.588 86.135 259.85ZM51.3497 259.501C48.9958 259.24 46.6419 258.978 44.4624 258.629L44.6368 257.496C46.8163 257.844 49.1702 258.193 51.4369 258.368L51.3497 259.501ZM99.9968 258.019L99.8225 256.885C102.089 256.537 104.356 256.101 106.623 255.577L106.884 256.711C104.53 257.234 102.176 257.67 99.9968 258.019ZM37.6623 257.234C35.3084 256.711 33.0417 256.013 30.9493 255.316L31.2981 254.182C33.3904 254.88 35.5699 255.577 37.9238 256.101L37.6623 257.234ZM113.597 255.229L113.336 254.095C115.428 253.572 117.695 253.049 120.049 252.351L120.31 253.485C117.956 254.182 115.689 254.705 113.597 255.229ZM24.4107 252.7C22.2312 251.653 20.226 250.52 18.3081 249.299L18.9183 248.34C20.7491 249.561 22.7543 250.694 24.8466 251.741L24.4107 252.7ZM127.023 251.741L126.674 250.607C127.633 250.345 128.592 250.084 129.551 249.822C130.859 249.474 132.08 249.125 133.387 248.776L133.736 249.91C132.515 250.258 131.208 250.607 129.9 250.956C128.941 251.13 127.982 251.392 127.023 251.741ZM187.352 250.694C185.26 249.648 183.081 248.776 180.988 248.078L181.337 247.032C183.429 247.817 185.609 248.689 187.788 249.735L187.352 250.694ZM140.362 247.991L140.1 246.858C142.628 246.247 144.808 245.724 146.9 245.288L147.162 246.422C145.07 246.858 142.89 247.381 140.362 247.991ZM174.362 246.16C172.096 245.637 169.829 245.288 167.562 245.026L167.649 243.893C169.916 244.154 172.27 244.503 174.537 245.026L174.362 246.16ZM153.875 245.288L153.7 244.154C156.142 243.806 158.408 243.631 160.675 243.631V244.765C158.583 244.852 156.316 245.026 153.875 245.288ZM12.8156 244.852C11.072 243.282 9.50275 241.451 8.10785 239.62L9.06684 238.923C10.3746 240.754 11.9438 242.41 13.6003 243.98L12.8156 244.852ZM4.44624 233.691C3.40007 231.598 2.61544 229.418 1.91799 227.151L3.05134 226.802C3.66161 229.069 4.53342 231.162 5.49242 233.167L4.44624 233.691ZM0.435906 220.175C0.174362 217.908 0 215.553 0 213.199H1.13336C1.13336 215.553 1.30772 217.821 1.56926 220.088L0.435906 220.175ZM1.48208 206.31L0.348725 206.223C0.610268 203.956 0.958993 201.602 1.3949 199.335L2.52825 199.596C2.09235 201.776 1.74362 204.131 1.48208 206.31ZM4.1847 192.795L3.05134 192.446C4.1847 188.348 5.31805 185.906 5.31805 185.819L6.36423 186.255C6.36423 186.342 5.31805 188.871 4.1847 192.795Z" fill="#C2BEBC"/>
<path d="M371.741 52.406C371.741 52.406 369.823 50.662 366.336 48.1333L367.034 47.1741C370.521 49.79 372.526 51.534 372.526 51.534L371.741 52.406ZM360.669 44.1222C358.751 42.8142 356.833 41.5934 354.828 40.3727L355.438 39.4135C357.444 40.6343 359.449 41.855 361.367 43.163L360.669 44.1222ZM348.813 36.9719C346.807 35.8384 344.715 34.792 342.623 33.8328L343.146 32.7864C345.238 33.7456 347.331 34.8792 349.336 35.9256L348.813 36.9719ZM336.346 30.9553C334.166 30.0833 332.074 29.2113 329.894 28.4265L330.243 27.293C332.423 28.0777 334.602 28.9497 336.782 29.8217L336.346 30.9553ZM248.467 29.5601V28.4265C250.734 28.3393 253 28.1649 255.267 27.8162L255.442 28.9497C253.088 29.2985 250.734 29.5601 248.467 29.5601ZM241.405 29.2113C239.139 28.9497 236.872 28.5137 234.518 27.8162L234.78 26.6826C237.046 27.293 239.313 27.729 241.493 27.9906L241.405 29.2113ZM262.242 27.3802L261.893 26.2466C262.678 25.985 263.375 25.8106 264.16 25.549C265.642 25.0258 267.124 24.5898 268.519 24.1538L268.867 25.2874C267.385 25.7234 265.99 26.1594 264.508 26.5954C263.811 26.857 263.026 27.1186 262.242 27.3802ZM323.356 26.3338C321.176 25.6362 318.909 25.113 316.643 24.5898L316.904 23.4563C319.171 23.9794 321.438 24.5898 323.617 25.2002L323.356 26.3338ZM227.892 25.6362C225.887 24.8514 223.795 23.8922 221.528 22.8459L222.051 21.7995C224.318 22.8459 226.323 23.805 228.328 24.5898L227.892 25.6362ZM275.58 23.6307L275.319 22.4971C277.586 22.0611 279.939 21.6251 282.206 21.3635L282.381 22.4971C280.114 22.8459 277.847 23.1947 275.58 23.6307ZM309.93 23.2819C307.663 22.9331 305.309 22.5843 303.13 22.4099L303.217 21.2763C305.484 21.5379 307.837 21.7995 310.104 22.1483L309.93 23.2819ZM106.536 22.1483L105.926 21.1891C107.931 19.8811 109.936 18.6604 111.854 17.5268L112.464 18.486C110.546 19.6195 108.541 20.8403 106.536 22.1483ZM289.268 21.9739L289.181 20.8403C291.447 20.7531 293.801 20.6659 296.155 20.7531V21.8867C293.888 21.8867 291.535 21.8867 289.268 21.9739ZM215.338 19.6195C213.42 18.5732 211.415 17.4396 209.236 16.2188L209.846 15.1724C212.025 16.3932 213.943 17.4396 215.861 18.5732L215.338 19.6195ZM118.393 14.9981L117.87 13.9517C119.962 12.8181 122.054 11.6845 124.059 10.7254L124.583 11.7717C122.49 12.8181 120.485 13.8645 118.393 14.9981ZM203.22 12.9053C200.953 11.6845 198.948 10.6382 197.117 9.67898L197.64 8.6326C199.471 9.59178 201.564 10.6382 203.83 11.8589L203.22 12.9053ZM130.772 8.89419L130.337 7.84782C132.516 6.88864 134.696 6.01666 136.788 5.23188L137.224 6.27825C135.131 7.06304 132.952 7.93502 130.772 8.89419ZM190.84 6.80144C188.661 5.84226 186.481 5.05748 184.389 4.3599L184.738 3.22633C186.917 3.92391 189.009 4.70869 191.276 5.66787L190.84 6.80144ZM143.762 4.1855L143.414 3.05193C145.68 2.35435 147.947 1.83116 150.214 1.39517L150.475 2.52874C148.296 2.96473 146.029 3.48792 143.762 4.1855ZM177.763 2.52874C175.496 2.00555 173.23 1.65676 170.963 1.39517L171.05 0.261594C173.317 0.523188 175.671 0.87198 177.937 1.39517L177.763 2.52874ZM157.276 1.48237L157.188 0.348792C159.542 0.087198 161.896 0 164.163 0V1.13357C161.896 1.04638 159.542 1.22077 157.276 1.48237Z" fill="#C2BEBC"/>
<path d="M227.628 263.425L198.51 254.967L207.228 252.351L227.628 263.425Z" fill="#D6D6D6"/>
<path d="M227.628 263.425L216.731 252.526L210.018 253.834L227.628 263.425Z" fill="#E8E8E8"/>
<path d="M205.223 256.885L205.484 260.286L227.628 263.425L205.223 256.885Z" fill="#C2C2C2"/>
<path d="M81.252 41.4192L106.883 27.0315L98.0779 26.4211L81.252 41.4192Z" fill="#D6D6D6"/>
<path d="M81.252 41.4192L89.0983 28.6883L95.724 28.5139L81.252 41.4192Z" fill="#E8E8E8"/>
<path d="M100.955 30.3451L101.478 33.5715L81.252 41.4193L100.955 30.3451Z" fill="#C2C2C2"/>
</svg>
